<?xml version="1.0" standalone="no"?>
<!DOCTYPE svg PUBLIC "-//W3C//DTD SVG 20010904//EN"
 "http://www.w3.org/TR/2001/REC-SVG-20010904/DTD/svg10.dtd">
<svg version="1.0" xmlns="http://www.w3.org/2000/svg"
 width="1024.000000pt" height="1024.000000pt" viewBox="0 0 1024.000000 1024.000000"
 preserveAspectRatio="xMidYMid meet">

<g transform="translate(0.000000,1024.000000) scale(0.100000,-0.100000)"
fill="#000000" stroke="none">
<path d="M4785 10229 c-963 -58 -1939 -416 -2720 -998 -703 -525 -1278 -1240
-1624 -2024 -235 -531 -366 -1044 -423 -1647 -15 -167 -15 -712 0 -875 74
-776 289 -1465 661 -2116 394 -687 978 -1307 1631 -1731 730 -473 1518 -745
2380 -820 188 -16 686 -16 865 0 891 82 1653 350 2414 847 531 347 1068 887
1426 1435 485 743 748 1508 827 2400 16 188 16 674 0 860 -53 599 -209 1183
-460 1725 -323 695 -821 1331 -1426 1820 -483 390 -1054 699 -1642 888 -618
199 -1241 276 -1909 236z m825 -783 c806 -103 1501 -378 2115 -836 833 -622
1411 -1510 1644 -2526 78 -340 96 -513 96 -954 0 -383 -5 -460 -51 -738 -123
-752 -470 -1499 -962 -2077 -192 -225 -472 -490 -698 -662 -907 -687 -2062
-993 -3199 -847 -1064 136 -2077 687 -2758 1498 -379 452 -632 906 -819 1470
-133 401 -196 789 -205 1256 -9 462 23 758 129 1174 258 1020 902 1935 1768
2515 290 193 553 333 850 450 414 163 804 251 1310 295 105 9 670 -4 780 -18z"/>
<path d="M5165 8861 c-76 -19 -115 -62 -115 -130 1 -74 32 -110 138 -160 61
-29 80 -62 57 -97 -20 -31 -89 -33 -147 -3 -47 24 -60 15 -56 -36 4 -42 58
-67 143 -67 109 0 170 53 169 145 0 72 -21 98 -115 147 -60 31 -80 47 -85 67
-5 20 -2 31 16 45 28 23 54 23 109 -2 24 -11 45 -20 47 -20 2 0 4 20 4 44 0
41 -2 45 -32 54 -52 16 -100 21 -133 13z"/>
<path d="M4754 8718 c-18 -4 -40 -20 -50 -35 l-18 -28 -6 25 c-5 22 -11 25
-40 22 -19 -2 -37 -6 -39 -8 -5 -4 15 -246 25 -306 6 -37 8 -38 50 -38 23 0
45 3 47 8 3 4 0 53 -6 110 -9 97 -9 105 10 130 13 17 33 29 54 32 19 3 34 11
33 18 -1 6 -2 25 -2 41 -2 34 -16 41 -58 29z"/>
<path d="M5515 8695 c-136 -49 -157 -265 -32 -335 35 -21 56 -25 125 -25 90 0
104 8 100 55 -3 21 -7 24 -28 20 -14 -3 -49 -5 -78 -5 -46 0 -57 4 -78 28 -13
15 -24 39 -24 53 0 20 4 24 23 20 65 -14 197 -27 208 -21 19 12 6 120 -18 153
-43 58 -128 82 -198 57z m110 -80 c14 -13 25 -34 25 -46 0 -19 -4 -21 -31 -15
-17 3 -47 6 -66 6 -44 0 -53 23 -23 56 30 31 64 31 95 -1z"/>
<path d="M3773 8685 l-32 -14 18 -63 c10 -35 45 -147 77 -250 62 -201 63 -202
119 -176 32 14 31 22 -5 137 -30 98 -30 111 8 154 22 25 68 22 86 -5 8 -13 27
-69 42 -125 15 -60 32 -103 39 -103 45 0 75 14 75 34 0 24 -44 196 -62 239
-18 45 -54 67 -111 67 -44 0 -53 -4 -90 -40 -22 -22 -40 -39 -41 -38 -1 2 -15
46 -32 98 -18 57 -36 96 -45 97 -8 1 -28 -4 -46 -12z"/>
<path d="M4314 8651 c-100 -45 -132 -168 -71 -275 47 -84 149 -105 260 -54 57
27 68 45 48 77 -8 12 -17 11 -59 -7 -85 -37 -155 -22 -164 33 -3 18 8 22 102
41 58 12 109 22 114 23 14 2 -3 82 -25 117 -38 62 -126 81 -205 45z m125 -83
c9 -15 13 -29 10 -32 -3 -3 -35 -12 -72 -20 l-67 -14 0 29 c0 68 97 96 129 37z"/>
<path d="M5896 8640 c-83 -26 -140 -147 -115 -245 21 -82 116 -137 203 -118
32 6 41 13 48 38 11 42 4 59 -21 45 -34 -18 -88 -12 -111 12 -40 43 -17 168
35 188 33 12 68 4 91 -21 9 -10 23 -19 29 -19 15 0 28 45 20 69 -12 37 -122
69 -179 51z"/>
<path d="M6580 8557 c-45 -16 -80 -68 -80 -119 0 -47 17 -83 60 -123 72 -69
85 -126 34 -146 -32 -12 -87 11 -132 54 -27 27 -34 29 -43 17 -34 -54 -12 -95
76 -136 100 -47 189 -23 226 61 28 62 14 107 -55 182 -60 66 -70 87 -56 114
19 34 90 18 134 -30 25 -28 33 -27 52 10 15 30 15 32 -8 56 -51 54 -146 82
-208 60z"/>
<path d="M3634 8456 c-50 -17 -103 -40 -118 -49 -73 -48 -84 -136 -24 -191 28
-25 31 -35 29 -72 -2 -34 2 -46 18 -56 18 -11 20 -19 15 -60 -6 -42 -3 -49 21
-74 24 -24 32 -26 78 -21 66 8 148 49 186 93 40 45 42 100 7 141 -20 23 -31
28 -68 26 -23 -1 -70 -11 -102 -22 -73 -26 -86 -26 -86 -2 0 13 10 21 34 25
89 17 141 113 101 189 -14 27 -14 29 6 34 16 5 19 11 14 32 -4 14 -9 29 -13
33 -4 3 -48 -8 -98 -26z m16 -117 c22 -41 -26 -98 -70 -84 -49 16 -51 96 -3
113 32 11 58 1 73 -29z m120 -234 c18 -22 8 -47 -29 -72 -39 -26 -83 -30 -101
-8 -20 24 -2 52 48 74 56 25 66 25 82 6z"/>
<path d="M3228 8434 c-34 -18 -38 -62 -8 -89 19 -17 22 -18 55 -2 28 13 35 22
35 46 0 30 -22 61 -43 61 -7 -1 -24 -8 -39 -16z"/>
<path d="M3048 8329 c-21 -11 -38 -22 -38 -25 0 -3 20 -43 45 -88 25 -46 45
-85 45 -88 0 -4 -98 -65 -152 -95 -3 -2 -28 35 -55 82 -26 47 -52 85 -58 85
-16 0 -75 -39 -75 -50 0 -5 43 -85 96 -177 53 -93 107 -187 121 -211 23 -41
24 -42 52 -28 56 30 57 38 7 127 -25 44 -46 85 -46 90 0 6 70 51 152 96 4 2
22 -25 39 -59 17 -35 40 -75 51 -90 l19 -28 40 20 c21 11 39 23 39 27 0 15
-231 433 -239 433 -4 -1 -23 -10 -43 -21z"/>
<path d="M6099 8340 c-25 -15 -32 -58 -14 -86 18 -28 65 -33 89 -8 49 48 -16
129 -75 94z"/>
<path d="M7113 8111 c-68 -120 -123 -222 -123 -227 0 -10 56 -44 70 -44 5 0
34 42 65 94 30 52 62 97 71 100 34 13 83 6 94 -13 17 -33 12 -49 -45 -150 -30
-54 -55 -102 -55 -109 0 -11 50 -42 69 -42 5 0 27 28 49 63 104 165 117 226
57 282 -34 33 -102 54 -125 40 -18 -11 -11 6 35 91 25 45 45 85 45 88 0 8 -62
46 -75 46 -5 0 -65 -99 -132 -219z"/>
<path d="M3298 8299 c-21 -11 -38 -22 -38 -24 0 -3 34 -75 74 -161 l75 -155
37 16 c20 8 38 15 40 15 10 0 1 27 -27 88 -18 37 -49 104 -70 149 -21 44 -42
83 -46 86 -4 3 -25 -4 -45 -14z"/>
<path d="M6854 8271 c-90 -55 -129 -179 -82 -262 38 -68 173 -117 197 -71 24
46 19 55 -33 56 -38 1 -52 7 -68 26 -38 47 -9 144 55 180 23 13 30 12 62 -3
19 -9 41 -28 47 -42 14 -32 20 -32 42 5 17 31 17 31 -8 64 -48 64 -148 86
-212 47z"/>
<path d="M7497 7905 c-57 -20 -83 -43 -117 -107 -23 -44 -26 -108 -6 -146 35
-66 122 -122 188 -122 78 1 165 91 175 183 13 117 -129 231 -240 192z m107
-86 c13 -7 30 -25 37 -42 11 -26 10 -35 -10 -72 -32 -60 -65 -88 -103 -88 -36
0 -78 40 -78 75 0 32 47 106 78 122 33 19 44 19 76 5z"/>
<path d="M2505 7807 c-46 -26 -85 -87 -85 -135 0 -24 9 -42 29 -63 34 -33 69
-37 144 -14 56 17 77 11 77 -21 0 -30 -34 -61 -82 -76 -44 -13 -45 -16 -18
-46 26 -27 31 -27 82 -1 106 54 140 158 73 225 -29 29 -68 31 -145 8 -46 -14
-54 -14 -67 -1 -12 11 -13 19 -4 36 12 22 60 51 86 51 18 0 18 2 3 35 -14 31
-40 32 -93 2z"/>
<path d="M2167 7742 c-15 -15 -27 -32 -27 -36 0 -4 33 -44 73 -89 39 -45 112
-127 161 -182 49 -55 95 -106 102 -114 11 -12 17 -10 43 10 16 13 30 31 30 40
1 15 -334 399 -348 399 -4 0 -19 -13 -34 -28z"/>
<path d="M7793 7641 c-48 -22 -98 -85 -114 -144 -30 -113 119 -252 234 -217
43 13 111 70 133 111 33 64 7 160 -58 214 -67 57 -125 67 -195 36z m151 -96
c32 -29 34 -67 6 -113 -36 -59 -112 -89 -151 -59 -49 38 -44 99 14 154 53 50
91 56 131 18z"/>
<path d="M8112 7357 c-100 -100 -182 -185 -182 -189 0 -4 15 -21 33 -37 l32
-31 183 183 c100 100 182 185 182 189 0 9 -50 68 -58 68 -4 0 -89 -82 -190
-183z"/>
<path d="M2182 7510 c-17 -16 -22 -32 -22 -67 0 -46 0 -46 -20 -28 -20 18 -21
18 -45 -5 -14 -13 -25 -28 -25 -34 0 -14 232 -246 246 -246 6 0 23 14 39 30
l29 30 -35 36 c-19 20 -53 55 -76 79 -38 37 -43 48 -43 88 0 36 5 49 22 61 18
13 19 17 8 33 -17 22 -41 43 -50 43 -3 0 -16 -9 -28 -20z"/>
<path d="M1882 7383 c-7 -3 -19 -18 -28 -35 -14 -27 -14 -32 1 -54 21 -32 58
-31 84 2 26 33 27 56 3 77 -19 17 -36 20 -60 10z"/>
<path d="M1975 7269 c-14 -18 -25 -37 -23 -44 2 -6 59 -62 128 -123 l125 -111
28 31 c15 18 27 37 27 43 0 9 -219 212 -247 228 -6 4 -23 -6 -38 -24z"/>
<path d="M1765 7181 c-75 -45 -126 -137 -133 -238 -6 -88 17 -143 85 -203 108
-95 238 -85 328 24 42 51 75 131 75 179 0 29 -9 38 -87 94 -47 34 -90 60 -95
57 -4 -3 -31 -38 -58 -78 l-49 -74 23 -21 c31 -29 41 -27 66 14 12 19 24 35
27 35 15 0 83 -57 83 -70 0 -25 -48 -89 -80 -105 -91 -47 -217 32 -228 144 -7
74 30 133 118 192 l25 17 -24 26 c-29 31 -37 32 -76 7z"/>
<path d="M8465 7153 c-34 -9 -63 -33 -75 -63 -12 -29 -11 -46 7 -203 9 -82
-34 -102 -93 -43 -22 22 -35 47 -40 73 -10 62 -17 70 -50 53 -36 -20 -40 -34
-21 -94 43 -136 182 -205 271 -135 44 34 52 84 30 189 -20 99 -15 122 24 128
31 5 70 -38 84 -92 13 -50 24 -55 58 -28 20 16 21 21 11 58 -16 59 -63 118
-113 143 -45 21 -56 23 -93 14z"/>
<path d="M5150 6928 c-45 -31 -50 -62 -14 -99 l28 -29 -46 0 c-42 0 -46 2 -51
28 -4 15 -16 42 -28 61 -18 29 -22 32 -30 19 -7 -12 -2 -27 16 -54 14 -21 24
-42 22 -48 -2 -6 -31 -12 -65 -14 -57 -3 -62 -1 -62 18 0 12 -4 18 -10 15 -15
-9 -12 -51 4 -64 10 -9 45 -10 118 -6 147 9 148 9 148 49 0 18 -9 45 -20 59
l-20 25 26 20 c41 29 26 48 -16 20z"/>
<path d="M5315 6908 c-2 -7 -8 -35 -13 -63 -5 -27 -13 -58 -17 -67 -6 -15 -2
-18 19 -18 20 0 32 9 47 35 21 35 29 39 92 51 20 3 37 10 37 15 0 24 -99 -3
-132 -36 l-24 -24 4 60 c4 54 -2 77 -13 47z"/>
<path d="M4906 6894 c-9 -23 -8 -27 9 -20 8 3 15 1 15 -5 0 -6 5 -7 10 -4 6 3
10 13 10 21 0 8 -4 12 -10 9 -5 -3 -10 -1 -10 4 0 17 -17 13 -24 -5z"/>
<path d="M5440 6898 c-52 -14 -64 -31 -15 -23 38 7 64 20 54 28 -2 2 -20 0
-39 -5z"/>
<path d="M4736 6804 c-12 -31 -6 -56 14 -61 30 -8 9 -37 -40 -57 -41 -16 -46
-36 -9 -36 35 0 58 19 84 70 29 58 30 64 9 84 -20 21 -50 20 -58 0z m39 -24
c3 -5 -1 -10 -9 -10 -9 0 -16 5 -16 10 0 6 4 10 9 10 6 0 13 -4 16 -10z"/>
<path d="M5492 6783 c-30 -53 -18 -64 93 -88 79 -17 205 -59 250 -82 28 -14
68 -34 90 -45 22 -10 47 -23 55 -28 46 -29 73 -41 85 -36 13 5 75 103 75 119
0 21 -19 2 -40 -39 -28 -54 -34 -58 -50 -39 -7 8 -23 15 -36 15 -26 0 -30 11
-14 40 15 29 -11 44 -65 36 -38 -6 -45 -5 -45 10 0 12 -6 15 -22 11 -27 -8
-48 8 -48 37 -1 20 -1 21 -15 2 -14 -19 -17 -19 -132 13 -152 41 -161 45 -165
73 l-3 23 -13 -22z m486 -180 c5 -18 -10 -16 -34 2 -18 15 -18 15 5 13 14 -2
26 -9 29 -15z"/>
<path d="M4396 6772 c-10 -17 2 -32 25 -32 10 0 19 5 19 10 0 6 -6 10 -14 10
-8 0 -16 5 -18 12 -3 9 -6 9 -12 0z"/>
<path d="M8626 6759 l-27 -21 42 -36 c23 -20 48 -51 56 -70 12 -30 12 -37 -2
-58 -8 -13 -19 -24 -23 -24 -4 0 -22 23 -40 51 -58 88 -132 113 -191 63 -25
-21 -31 -33 -31 -66 0 -53 26 -105 66 -131 26 -18 32 -27 27 -47 -3 -18 2 -31
16 -44 20 -18 22 -18 107 30 48 27 104 65 125 85 33 31 39 42 39 78 0 48 -26
104 -71 156 -47 53 -62 58 -93 34z m-42 -192 c33 -43 33 -52 -4 -67 -25 -10
-34 -10 -55 4 -30 19 -42 60 -25 81 21 26 57 18 84 -18z"/>
<path d="M4655 6740 c-7 -23 2 -43 16 -35 12 8 12 42 0 50 -5 3 -12 -4 -16
-15z"/>
<path d="M4560 6728 c-15 -32 -27 -35 -46 -10 -11 13 -16 14 -22 4 -5 -7 -19
-11 -33 -10 -33 4 -32 -24 1 -33 l25 -7 -32 -13 c-34 -14 -43 -36 -20 -45 8
-3 39 9 71 26 32 16 64 30 71 30 23 0 26 17 12 52 l-14 33 -13 -27z"/>
<path d="M4240 6666 c0 -8 16 -28 35 -45 19 -17 35 -33 35 -37 0 -3 -10 -14
-22 -24 -30 -24 -14 -39 20 -19 40 22 38 43 -9 94 -43 47 -59 55 -59 31z"/>
<path d="M4130 6622 c0 -5 11 -14 24 -20 22 -10 24 -14 14 -39 -22 -62 31
-111 66 -61 23 32 20 54 -9 75 -14 10 -35 26 -47 36 -22 18 -48 23 -48 9z m84
-81 c7 -11 -22 -23 -35 -15 -5 3 -7 10 -4 15 8 12 32 12 39 0z"/>
<path d="M1503 6525 c-16 -33 -45 -46 -57 -26 -3 5 -15 11 -27 14 -16 4 -24
-1 -35 -28 -21 -51 -18 -64 20 -82 30 -14 34 -20 29 -44 -4 -24 -1 -30 22 -41
26 -12 36 -7 48 26 2 5 43 -12 91 -38 102 -53 150 -60 184 -23 43 46 55 119
23 137 -30 16 -36 13 -46 -22 -14 -47 -42 -47 -130 2 -41 23 -75 43 -75 46 0
3 7 21 15 41 19 45 20 40 -15 58 -30 16 -30 15 -47 -20z"/>
<path d="M4945 6534 c-509 -77 -913 -447 -1021 -936 -11 -47 -17 -122 -17
-213 0 -120 3 -154 25 -236 55 -204 136 -349 285 -511 89 -96 126 -126 268
-216 86 -54 277 -128 392 -151 451 -92 915 48 1213 367 158 169 252 350 296
571 24 122 15 312 -20 446 -116 432 -486 769 -958 871 -105 22 -340 27 -463 8z
m332 -124 c363 -46 677 -246 845 -539 59 -103 107 -250 107 -326 l0 -60 -19
45 -18 45 0 -150 c1 -155 -20 -283 -57 -355 -10 -20 -15 -60 -16 -127 -1 -124
-11 -200 -31 -219 -13 -14 -24 -13 -104 7 -76 20 -115 23 -274 24 -102 0 -207
-4 -233 -8 -80 -14 -47 -18 44 -6 64 9 117 9 223 0 194 -17 190 -15 106 -86
-180 -153 -406 -240 -650 -252 -181 -9 -352 28 -527 112 -83 41 -211 132 -256
183 -18 20 -18 20 10 26 129 27 373 25 487 -5 50 -13 58 -6 9 9 -171 49 -397
49 -628 -2 -53 -12 -62 -12 -77 3 -19 18 -38 136 -38 239 0 41 -10 99 -24 149
-34 113 -50 257 -43 372 l6 96 -19 -55 c-11 -30 -20 -56 -20 -58 0 -2 -5 0
-10 3 -12 8 -6 67 16 160 119 491 657 842 1191 775z"/>
<path d="M5106 6018 c-49 -77 -86 -177 -86 -235 0 -45 19 -120 34 -132 8 -6
12 5 14 42 2 58 58 182 81 182 26 0 82 -119 89 -188 l5 -62 18 40 c41 90 16
219 -69 361 l-39 65 -47 -73z"/>
<path d="M4535 5488 c-10 -95 -35 -401 -35 -440 l0 -38 64 0 c150 0 404 -126
523 -259 l33 -36 0 296 0 297 -61 56 c-107 99 -304 176 -450 176 l-68 0 -6
-52z"/>
<path d="M5607 5530 c-104 -18 -264 -81 -252 -100 3 -5 0 -7 -8 -4 -15 5 -98
-53 -134 -95 -23 -26 -23 -30 -23 -314 l0 -289 68 59 c115 101 184 145 287
183 68 26 182 52 225 52 l36 -1 -8 92 c-31 354 -38 411 -50 419 -16 9 -76 9
-141 -2z"/>
<path d="M4375 5438 c-3 -10 -55 -535 -55 -560 0 -3 69 -8 153 -11 210 -9 339
-37 542 -121 l40 -17 -25 20 c-122 97 -356 192 -532 216 -57 7 -55 -9 -33 235
8 91 15 184 15 208 l0 42 -50 0 c-32 0 -52 -5 -55 -12z"/>
<path d="M5826 5441 c-4 -5 -4 -32 -1 -58 16 -146 35 -404 31 -412 -3 -5 -32
-12 -63 -16 -114 -13 -319 -78 -307 -96 3 -5 -2 -6 -10 -3 -9 3 -16 2 -16 -4
0 -5 -12 -12 -27 -16 -30 -6 -146 -86 -126 -86 6 0 19 7 27 16 9 8 16 13 16
10 0 -6 153 44 165 55 5 5 29 9 53 9 24 0 41 3 39 8 -3 4 9 7 26 8 130 3 347
18 347 23 0 30 -52 556 -55 559 -10 11 -93 13 -99 3z m51 -308 c-3 -10 -5 -4
-5 12 0 17 2 24 5 18 2 -7 2 -21 0 -30z m-322 -263 c3 -5 1 -10 -4 -10 -6 0
-11 5 -11 10 0 6 2 10 4 10 3 0 8 -4 11 -10z"/>
<path d="M4248 5313 l-28 -4 1 -142 c1 -140 19 -380 29 -391 3 -3 48 1 100 9
52 8 149 15 215 16 176 2 67 17 -138 19 l-158 1 6 72 c12 138 35 372 40 400 5
29 1 30 -67 20z"/>
<path d="M6001 5303 c11 -13 11 -15 1 -9 -10 6 -12 0 -8 -26 15 -93 27 -245
29 -343 l2 -110 -125 2 c-96 2 -119 0 -100 -8 14 -6 48 -9 77 -7 28 2 49 0 47
-3 -3 -6 126 -23 131 -17 2 2 6 63 9 137 3 74 8 136 11 139 3 3 5 58 5 122 l0
116 -33 12 c-49 18 -63 16 -46 -5z"/>
<path d="M5398 4723 c7 -3 16 -2 19 1 4 3 -2 6 -13 5 -11 0 -14 -3 -6 -6z"/>
<path d="M4000 6480 c0 -5 6 -10 14 -10 8 0 18 5 21 10 3 6 -3 10 -14 10 -12
0 -21 -4 -21 -10z"/>
<path d="M6176 6451 c-26 -28 -17 -51 34 -89 78 -57 100 -77 100 -85 0 -5 16
-29 36 -53 25 -30 44 -44 60 -44 19 0 24 -5 24 -27 0 -15 22 -60 52 -106 29
-43 53 -87 53 -96 0 -10 10 -17 29 -19 42 -5 76 6 76 24 0 10 -5 14 -15 10 -8
-3 -21 -8 -28 -11 -7 -3 -18 8 -26 27 -8 18 -16 36 -18 39 -2 3 13 13 33 23
50 23 32 42 -20 21 -30 -13 -41 -14 -53 -4 -12 11 -6 17 41 41 31 16 56 35 56
43 0 22 -18 18 -52 -10 -38 -32 -61 -32 -87 1 -25 32 -26 47 -6 64 24 20 19
50 -8 50 -13 0 -29 -6 -36 -12 -10 -11 -21 -3 -57 37 -29 33 -42 56 -38 68 5
14 1 17 -18 12 -17 -4 -35 5 -72 37 l-49 42 23 18 c21 17 21 18 3 18 -11 0
-28 -9 -37 -19z m274 -231 c0 -5 -7 -10 -15 -10 -8 0 -15 5 -15 10 0 6 7 10
15 10 8 0 15 -4 15 -10z"/>
<path d="M4077 6440 c7 -25 -22 -60 -49 -60 -10 0 -18 -7 -18 -16 0 -11 -6
-14 -20 -9 -13 4 -31 -3 -55 -21 -39 -29 -42 -40 -19 -65 14 -15 13 -20 -15
-52 -35 -40 -39 -57 -13 -57 12 0 36 26 65 69 26 37 74 92 107 120 l60 52 -15
30 c-18 33 -36 39 -28 9z m-105 -132 c-7 -7 -12 -8 -12 -2 0 14 12 26 19 19 2
-3 -1 -11 -7 -17z"/>
<path d="M8770 6392 c-19 -9 -39 -27 -45 -40 -8 -18 -15 -21 -37 -17 -32 8
-64 -8 -73 -35 -5 -16 -10 -17 -30 -8 -58 26 -113 -29 -101 -103 10 -61 54
-145 97 -184 50 -45 106 -49 144 -10 34 33 32 79 -5 167 -16 38 -30 77 -30 85
0 29 32 7 46 -32 19 -58 74 -105 122 -105 20 0 48 7 60 16 22 15 24 15 36 -1
14 -19 56 -13 56 8 0 22 -68 186 -89 216 -17 24 -83 61 -109 61 -4 0 -23 -8
-42 -18z m104 -88 c43 -42 21 -104 -36 -104 -24 0 -32 6 -44 36 -14 32 -13 38
1 60 18 28 56 32 79 8z m-227 -144 c36 -74 28 -108 -22 -96 -40 10 -83 115
-58 140 4 4 19 6 33 4 18 -2 31 -15 47 -48z"/>
<path d="M3847 6364 c-9 -10 21 -36 33 -29 6 4 5 12 -4 21 -16 16 -20 17 -29
8z"/>
<path d="M1392 6283 c-5 -16 -13 -35 -16 -44 -5 -12 21 -40 95 -103 l102 -88
-133 3 -134 4 -13 -44 c-7 -25 -12 -45 -10 -46 1 -1 84 -5 184 -9 l181 -6 17
51 c17 50 17 51 -6 76 -72 78 -236 233 -246 233 -6 0 -16 -12 -21 -27z"/>
<path d="M6272 6249 c2 -7 10 -15 17 -17 8 -3 12 1 9 9 -2 7 -10 15 -17 17 -8
3 -12 -1 -9 -9z"/>
<path d="M6292 6208 c5 -15 28 -18 29 -3 0 6 -7 12 -17 13 -10 3 -15 -1 -12
-10z"/>
<path d="M3817 6135 c-4 -8 -16 -15 -27 -15 -13 0 -20 -7 -20 -20 0 -11 7 -20
15 -20 7 0 19 -8 24 -17 10 -17 12 -17 26 2 18 22 16 76 -1 82 -6 2 -14 -3
-17 -12z"/>
<path d="M3660 6069 c0 -7 5 -29 12 -51 22 -73 95 -105 116 -50 26 68 26 73
-5 66 -30 -7 -55 -24 -35 -24 7 0 12 -7 12 -15 0 -36 -38 -2 -60 53 -12 30
-40 45 -40 21z"/>
<path d="M8975 6016 c-19 -13 -19 -15 -3 -33 19 -21 57 -101 58 -120 0 -15
-35 -53 -49 -53 -5 0 -19 25 -31 56 -43 104 -99 142 -165 112 -69 -31 -72
-151 -5 -218 16 -16 19 -25 11 -34 -13 -15 4 -76 21 -76 20 0 184 53 220 71
57 29 72 58 66 132 -7 84 -55 177 -92 177 -7 0 -21 -6 -31 -14z m-100 -142
c18 -18 48 -85 40 -92 -2 -3 -21 -5 -41 -6 -32 -1 -40 4 -57 32 -16 27 -18 38
-9 58 13 28 43 31 67 8z"/>
<path d="M1350 5890 c-74 -13 -113 -52 -134 -134 -35 -133 37 -238 172 -252
37 -4 55 0 86 18 83 48 124 197 77 274 -41 68 -126 107 -201 94z m79 -116 c52
-20 75 -55 67 -100 -12 -59 -69 -80 -140 -50 -75 31 -99 95 -54 143 26 28 70
30 127 7z"/>
<path d="M3630 5829 c-6 -11 -10 -35 -8 -52 3 -29 1 -32 -22 -28 -48 7 -54 6
-57 -9 -3 -10 8 -19 29 -25 26 -8 33 -15 33 -35 0 -21 -4 -25 -25 -22 l-25 3
24 -19 c21 -17 23 -24 17 -63 -4 -24 -9 -53 -10 -64 -3 -29 -8 -31 -39 -11
-15 11 -30 17 -32 14 -9 -9 36 -69 60 -80 42 -19 54 4 59 107 2 50 10 104 16
120 6 17 12 57 14 90 2 54 4 60 26 66 l25 6 -28 12 c-39 15 -45 14 -57 -10z"/>
<path d="M6617 5803 c-13 -12 -7 -44 8 -49 8 -4 15 -17 15 -31 0 -13 7 -37 15
-52 8 -16 14 -42 13 -57 0 -16 2 -56 6 -90 4 -33 8 -83 9 -111 1 -29 5 -55 9
-58 4 -4 4 -13 1 -21 -5 -13 6 -19 75 -42 29 -9 33 -8 30 5 -2 9 -19 22 -38
28 -37 13 -49 37 -30 60 10 12 10 18 0 30 -7 8 -10 23 -7 34 2 10 0 26 -5 35
-6 12 -6 22 3 32 9 11 9 18 1 26 -22 22 -12 31 27 24 25 -4 42 -2 47 5 10 17
-17 30 -48 23 -20 -4 -29 0 -38 16 -6 11 -8 25 -5 30 3 5 -2 21 -11 35 -13 20
-14 28 -4 40 6 8 9 19 5 25 -8 13 1 13 24 -2 15 -9 23 -9 35 1 20 17 9 41 -18
41 -12 0 -31 7 -42 15 -20 15 -66 20 -77 8z m43 -23 c0 -5 -5 -10 -11 -10 -5
0 -7 5 -4 10 3 6 8 10 11 10 2 0 4 -4 4 -10z"/>
<path d="M3491 5686 c-10 -12 -8 -17 8 -25 26 -14 31 -14 31 3 0 24 -26 38
-39 22z"/>
<path d="M8970 5619 c-74 -16 -138 -33 -143 -38 -4 -4 -5 -26 -1 -49 8 -49 6
-49 128 -22 113 25 112 25 141 -6 31 -34 32 -69 3 -88 -18 -11 -198 -56 -223
-56 -7 0 -6 -41 1 -67 8 -28 29 -29 142 -6 l84 16 30 -30 c24 -24 29 -37 24
-56 -7 -29 -34 -41 -136 -62 -41 -9 -83 -18 -92 -21 -19 -6 -23 -39 -11 -82 7
-27 9 -27 168 10 73 17 96 27 122 53 51 51 46 122 -14 186 -23 25 -24 29 -10
50 8 13 18 34 21 46 10 33 -12 102 -41 131 -23 23 -24 26 -9 38 14 9 15 19 8
46 -11 43 -22 43 -192 7z"/>
<path d="M1047 5461 c-22 -37 -47 -135 -47 -184 0 -174 158 -296 317 -243 105
35 163 135 163 279 0 127 4 121 -113 143 -56 10 -109 19 -117 19 -11 0 -18
-24 -27 -95 -7 -52 -9 -97 -5 -101 4 -4 17 -10 29 -14 19 -5 25 -1 33 20 5 14
10 37 10 51 0 23 3 24 38 19 71 -12 72 -14 72 -56 0 -50 -20 -97 -54 -128 -20
-19 -40 -26 -85 -29 -87 -6 -145 31 -170 110 -15 45 -7 95 27 166 21 45 23 55
11 63 -29 18 -64 10 -82 -20z"/>
<path d="M3600 5316 c-10 -13 -23 -17 -47 -13 -38 7 -47 -15 -14 -33 45 -23
86 -2 79 41 -3 21 -4 21 -18 5z"/>
<path d="M6767 5244 c-3 -3 -1 -17 5 -30 16 -34 5 -39 -43 -20 -23 9 -44 14
-47 11 -4 -3 -8 -30 -9 -58 -4 -71 -14 -111 -29 -120 -7 -4 -18 -32 -24 -63
-7 -31 -25 -77 -41 -102 -16 -25 -29 -56 -29 -69 0 -28 41 -57 70 -48 28 9 25
25 -5 25 -20 0 -25 5 -25 24 0 14 6 31 13 38 8 7 19 24 26 37 9 15 19 21 32
18 23 -6 25 6 4 23 -14 12 -14 26 1 81 3 9 14 19 25 22 15 4 19 11 14 25 -3
11 -2 23 3 26 5 3 10 27 10 52 1 26 3 48 5 50 1 2 16 -3 31 -11 37 -19 35 -20
52 20 11 26 12 41 4 55 -10 20 -31 26 -43 14z"/>
<path d="M3578 5120 c-3 -18 1 -35 9 -41 16 -14 17 -41 1 -57 -9 -9 -8 -12 5
-12 9 0 17 -4 17 -9 0 -5 -18 -8 -39 -7 -48 1 -60 -9 -38 -31 14 -14 24 -15
60 -6 38 8 46 7 55 -8 8 -13 8 -19 -1 -22 -8 -3 -5 -10 8 -21 19 -15 19 -17 3
-29 -19 -15 -14 -27 12 -27 24 0 58 -66 43 -81 -9 -9 -18 -8 -36 4 -27 17 -37
13 -37 -15 0 -15 8 -18 43 -18 74 0 97 44 54 103 -13 18 -24 43 -25 56 0 13
-12 40 -25 60 -13 20 -27 54 -31 76 -4 22 -13 46 -19 53 -8 10 -8 19 1 32 9
15 7 19 -11 24 -38 10 -45 7 -49 -24z"/>
<path d="M6690 4889 c-8 -14 -9 -24 -2 -31 17 -17 41 -2 35 22 -8 30 -20 34
-33 9z"/>
<path d="M3565 4881 c-8 -15 3 -31 21 -31 9 0 14 7 12 17 -4 20 -24 28 -33 14z"/>
<path d="M3315 4494 c4 -49 13 -131 19 -182 8 -65 9 -95 1 -101 -5 -5 -77 -30
-159 -57 l-148 -48 28 -24 c90 -73 294 -196 393 -235 39 -16 43 -20 37 -45 -3
-15 -9 -67 -12 -117 l-6 -90 29 -28 c37 -34 234 -115 394 -162 245 -71 568
-124 899 -146 215 -14 693 -6 907 15 403 41 809 138 1040 247 113 54 119 65
105 184 -17 134 -18 127 36 149 75 31 230 122 319 189 46 34 83 64 83 67 0 3
-63 25 -141 49 -77 25 -146 50 -153 55 -11 9 -11 31 -1 121 7 61 16 140 20
178 l7 67 -44 -29 c-84 -56 -254 -134 -398 -181 -135 -45 -322 -90 -369 -90
-25 0 -25 8 -5 -168 14 -113 20 -142 31 -138 7 3 41 13 75 22 93 24 251 85
358 139 52 26 89 41 82 33 -19 -23 -217 -122 -322 -161 -199 -74 -522 -141
-815 -168 -184 -18 -720 -18 -885 -1 -408 43 -794 141 -1020 258 -146 76 -180
107 -43 40 107 -53 337 -137 414 -151 l35 -7 12 94 c6 51 14 118 18 149 l6 56
-56 7 c-94 11 -324 74 -446 122 -118 47 -213 95 -288 147 l-44 29 7 -88z m955
-808 c0 -65 4 -107 11 -112 6 -3 49 -9 95 -12 l83 -5 11 29 c16 41 50 74 76
74 26 0 37 -25 32 -73 l-3 -32 70 2 c38 1 90 5 115 9 l45 7 -34 9 c-19 5 -43
7 -53 5 -10 -3 -18 -2 -18 3 0 14 41 60 54 60 11 0 144 -65 154 -75 1 -1 -2
-14 -7 -29 -9 -21 -17 -26 -47 -26 -20 0 -68 -10 -106 -21 -57 -18 -85 -21
-145 -15 -41 3 -83 11 -94 17 -14 7 -30 7 -56 -2 -46 -15 -171 -5 -191 15 -13
13 -19 12 -51 -10 -66 -43 -144 -44 -160 -1 -10 24 9 81 35 107 14 13 14 12 4
-14 -20 -54 22 -71 100 -40 48 19 55 39 45 129 -4 40 -2 71 5 84 22 42 30 20
30 -83z m2040 94 c0 -5 -4 -10 -10 -10 -5 0 -10 5 -10 10 0 6 5 10 10 10 6 0
10 -4 10 -10z m-382 -105 c2 -46 10 -88 16 -93 10 -8 184 0 274 13 37 6 40 8
28 21 -18 17 -11 41 21 78 27 31 29 31 71 6 50 -30 42 -48 -18 -42 -30 3 -50
1 -50 -5 0 -16 58 -24 113 -17 l50 7 -7 -29 c-9 -33 -22 -44 -52 -44 -11 0
-43 -7 -70 -15 -27 -9 -83 -20 -124 -25 -41 -5 -110 -14 -153 -19 -52 -7 -85
-7 -97 -1 -19 10 -82 -10 -95 -30 -11 -18 -69 -43 -96 -42 -30 1 -94 30 -85
39 3 3 25 7 48 9 35 3 50 12 80 44 30 32 44 40 73 40 45 0 50 12 37 98 -6 45
-6 74 1 90 18 38 30 8 35 -83z m-1831 69 c-9 -9 -28 6 -21 18 4 6 10 6 17 -1
6 -6 8 -13 4 -17z m43 -14 c0 -5 -4 -10 -10 -10 -5 0 -10 5 -10 10 0 6 5 10
10 10 6 0 10 -4 10 -10z m357 -26 c-9 -9 -28 6 -21 18 4 6 10 6 17 -1 6 -6 8
-13 4 -17z m53 16 c0 -5 -7 -10 -15 -10 -8 0 -15 5 -15 10 0 6 7 10 15 10 8 0
15 -4 15 -10z m626 -11 c10 -17 -13 -36 -27 -22 -12 12 -4 33 11 33 5 0 12 -5
16 -11z m-46 -19 c0 -5 -4 -10 -10 -10 -5 0 -10 5 -10 10 0 6 5 10 10 10 6 0
10 -4 10 -10z m310 0 c0 -5 -4 -10 -10 -10 -5 0 -10 5 -10 10 0 6 5 10 10 10
6 0 10 -4 10 -10z m-251 -66 c11 -14 23 -45 27 -70 11 -78 -62 -195 -113 -181
-10 3 -31 8 -48 12 -30 7 -30 7 21 26 27 10 63 33 79 49 l29 30 -41 0 c-69 0
-80 43 -33 123 26 44 51 47 79 11z m318 -19 c37 -66 29 -124 -28 -196 -32 -41
-51 -46 -119 -33 l-32 7 45 17 c49 19 117 67 117 82 0 6 -12 8 -27 5 -77 -14
-98 46 -42 122 36 51 55 50 86 -4z m-1367 -186 c0 -5 -7 -9 -15 -9 -15 0 -20
12 -9 23 8 8 24 -1 24 -14z m1626 -36 c-10 -10 -19 5 -10 18 6 11 8 11 12 0 2
-7 1 -15 -2 -18z"/>
<path d="M4504 3599 c-7 -12 12 -29 34 -29 18 0 15 27 -4 34 -21 8 -22 8 -30
-5z"/>
<path d="M5125 3570 c-7 -11 35 -31 48 -23 11 6 -12 33 -29 33 -7 0 -16 -5
-19 -10z"/>
<path d="M5437 3573 c-13 -12 -7 -21 18 -25 32 -7 42 8 16 21 -23 13 -26 13
-34 4z"/>
<path d="M3511 4511 c-11 -7 -6 -13 18 -26 40 -20 47 -15 22 13 -21 25 -21 25
-40 13z"/>
<path d="M4457 4404 c5 -13 2 -15 -18 -9 -31 10 -25 4 32 -29 l46 -26 -4 23
c-3 13 -18 31 -34 41 -26 16 -28 16 -22 0z m31 -29 c-3 -3 -9 2 -12 12 -6 14
-5 15 5 6 7 -7 10 -15 7 -18z"/>
<path d="M6000 4180 c0 -5 5 -10 10 -10 6 0 10 5 10 10 0 6 -4 10 -10 10 -5 0
-10 -4 -10 -10z"/>
<path d="M6035 4180 c-3 -5 1 -10 9 -10 9 0 16 5 16 10 0 6 -4 10 -9 10 -6 0
-13 -4 -16 -10z"/>
<path d="M4608 4168 c-6 -16 -3 -60 8 -115 5 -28 47 -31 120 -7 27 9 56 18 64
20 9 3 -3 14 -34 30 -28 14 -57 22 -67 19 -25 -8 -24 -25 0 -25 11 0 22 -4 25
-9 7 -10 -27 -21 -66 -21 -25 0 -27 4 -35 63 -5 38 -11 56 -15 45z"/>
<path d="M4700 4160 c0 -5 5 -10 10 -10 6 0 10 5 10 10 0 6 -4 10 -10 10 -5 0
-10 -4 -10 -10z"/>
<path d="M5707 4163 c-5 -7 -3 -30 2 -50 18 -64 15 -73 -23 -73 -24 0 -36 5
-39 18 -3 9 -5 3 -6 -14 -1 -26 4 -33 24 -38 46 -12 65 8 64 67 -1 64 -12 107
-22 90z"/>
<path d="M4339 4150 c-3 -8 -2 -35 3 -59 10 -54 -3 -73 -46 -69 -23 2 -32 9
-37 28 l-6 25 -8 -28 c-4 -17 -3 -33 5 -42 18 -22 76 -19 92 4 9 12 29 21 53
23 38 4 40 6 43 38 2 29 0 32 -8 18 -7 -11 -23 -18 -40 -18 -30 0 -35 7 -42
70 -2 16 -5 20 -9 10z"/>
<path d="M5762 4105 c-1 -37 2 -54 7 -45 5 8 5 35 1 60 l-7 45 -1 -60z"/>
<path d="M4966 4142 c-2 -4 -1 -14 3 -21 6 -9 10 -10 15 -2 4 6 12 9 17 6 5
-4 9 1 9 9 0 16 -35 22 -44 8z"/>
<path d="M5267 4143 c-12 -11 -8 -23 8 -23 8 0 15 7 15 15 0 16 -12 20 -23 8z"/>
<path d="M5310 4136 c0 -9 5 -16 10 -16 6 0 10 4 10 9 0 6 -4 13 -10 16 -5 3
-10 -1 -10 -9z"/>
<path d="M6022 4128 c-7 -7 -12 -20 -12 -30 0 -13 8 -18 30 -18 17 0 30 -5 30
-10 0 -10 -118 -6 -128 5 -3 2 -13 0 -22 -5 -13 -7 -21 -5 -30 5 -20 24 -30
17 -28 -17 3 -29 -1 -34 -30 -43 -18 -6 -29 -14 -26 -18 13 -13 38 -7 62 16
22 20 31 22 118 19 l94 -4 0 37 c0 62 -28 93 -58 63z m28 -18 c0 -5 -4 -10
-10 -10 -5 0 -10 5 -10 10 0 6 5 10 10 10 6 0 10 -4 10 -10z"/>
<path d="M4546 4121 c-4 -6 -1 -19 6 -30 17 -27 5 -35 -31 -23 -24 8 -31 7
-35 -5 -11 -29 -5 -33 44 -31 l50 2 0 37 c0 37 -22 69 -34 50z"/>
<path d="M5490 4085 c-28 -30 -75 -34 -85 -7 -6 16 -7 16 -16 0 -13 -23 -79
-25 -79 -3 0 20 -16 19 -24 -1 -6 -14 -17 -16 -81 -11 -73 7 -86 2 -64 -20 15
-15 -36 -53 -70 -53 -20 0 -23 -2 -11 -10 28 -18 58 -11 82 20 l24 30 124 0
c69 0 134 0 145 0 11 1 39 1 62 1 49 1 61 18 37 55 -9 13 -17 24 -18 24 -2 0
-13 -11 -26 -25z m35 -15 c3 -5 -1 -10 -9 -10 -9 0 -16 5 -16 10 0 6 4 10 9
10 6 0 13 -4 16 -10z"/>
<path d="M4970 4074 c-12 -31 -6 -44 21 -44 10 0 19 -4 19 -9 0 -13 -26 -21
-66 -21 -27 0 -37 5 -44 23 -8 20 -9 19 -9 -9 -1 -35 12 -44 63 -44 62 0 94
52 70 114 -10 25 -43 19 -54 -10z m40 -14 c0 -5 -7 -10 -15 -10 -8 0 -15 5
-15 10 0 6 7 10 15 10 8 0 15 -4 15 -10z"/>
<path d="M4386 4001 c-4 -5 -2 -12 3 -15 5 -4 12 -2 15 3 4 5 2 12 -3 15 -5 4
-12 2 -15 -3z"/>
<path d="M4420 3995 c0 -16 16 -20 24 -6 3 5 -1 11 -9 15 -9 3 -15 0 -15 -9z"/>
<path d="M1941 3233 c-11 -38 -29 -104 -41 -148 -20 -73 -26 -84 -77 -131
l-56 -51 28 -37 c15 -20 30 -36 34 -36 4 0 32 24 63 53 l56 53 136 19 c77 11
136 23 136 29 0 6 -14 26 -31 45 l-31 33 -90 -21 c-50 -12 -93 -19 -96 -17 -2
3 10 48 28 100 l32 96 -32 40 c-17 22 -33 40 -35 40 -2 0 -13 -30 -24 -67z"/>
<path d="M8226 3159 c-20 -24 -34 -50 -32 -58 2 -9 19 -81 37 -160 22 -95 40
-153 54 -169 l21 -24 63 77 63 76 29 -27 29 -28 25 24 c31 29 31 40 4 74 -16
20 -19 30 -10 39 18 18 13 45 -11 58 -18 10 -24 8 -35 -7 -12 -17 -20 -11
-107 75 l-93 93 -37 -43z m104 -151 l58 -62 -37 -42 c-20 -23 -37 -41 -39 -39
-6 5 -49 205 -45 205 2 0 30 -28 63 -62z"/>
<path d="M6125 3050 c-276 -33 -587 -45 -1175 -45 -461 0 -601 4 -763 18 -109
10 -205 21 -213 24 -11 4 -14 -5 -14 -38 0 -24 -3 -55 -7 -68 l-6 -24 -380 6
c-340 6 -632 18 -769 32 -27 3 -48 1 -48 -3 0 -12 446 -228 480 -233 3 0 -12
-7 -33 -15 -34 -12 -80 -24 -282 -76 -34 -9 -37 -11 -19 -18 33 -13 209 -38
340 -49 158 -14 658 -39 904 -46 107 -3 219 -8 248 -11 l52 -6 0 35 0 35 -97
6 c-252 18 -403 39 -403 56 0 16 17 19 51 10 73 -19 358 -41 674 -50 513 -16
1242 4 1680 45 l50 5 -40 -14 c-22 -7 -119 -19 -215 -25 -96 -7 -180 -14 -186
-16 -6 -2 -9 -17 -6 -35 4 -31 6 -31 41 -25 20 4 128 6 241 6 336 -2 876 26
1080 57 63 9 140 16 170 15 l55 -1 -40 19 c-23 11 -52 17 -67 14 -24 -4 -230
47 -298 73 -27 11 -28 10 50 35 77 26 301 117 385 157 44 21 93 41 108 45 17
3 25 10 21 17 -5 7 -2 9 7 6 8 -3 28 3 44 13 17 10 47 28 68 39 20 11 37 23
37 25 0 3 -17 -1 -37 -9 -21 -8 -54 -18 -73 -23 -19 -5 -34 -14 -33 -20 2 -9
-115 -31 -292 -54 -44 -6 -299 -13 -567 -16 l-488 -5 6 76 7 76 -49 -1 c-27
-1 -116 -10 -199 -19z"/>
<path d="M8008 2908 c-44 -47 -78 -125 -78 -179 0 -95 81 -207 166 -230 46
-13 111 16 150 66 38 50 45 135 14 183 -23 37 -81 66 -116 58 -33 -9 -82 -53
-103 -94 l-18 -35 -12 33 c-16 47 -5 92 35 139 34 39 34 41 18 66 -9 14 -18
25 -21 25 -3 0 -19 -15 -35 -32z m185 -235 c31 -54 -14 -118 -65 -92 -65 33
-73 65 -29 110 35 35 66 29 94 -18z"/>
<path d="M2039 2855 c-30 -16 -57 -54 -70 -98 -18 -65 32 -159 116 -217 44
-31 47 -31 60 -13 20 26 19 27 -25 57 -65 43 -95 107 -70 146 8 12 25 -1 90
-70 l81 -85 29 32 c42 47 48 92 19 150 -34 68 -97 113 -157 113 -26 -1 -59 -7
-73 -15z m152 -84 c32 -32 35 -48 16 -74 -11 -16 -17 -13 -62 33 -41 42 -47
52 -35 60 26 17 51 11 81 -19z"/>
<path d="M7738 2640 c-60 -32 -92 -82 -92 -145 -1 -63 21 -101 75 -127 28 -14
42 -16 71 -8 34 10 98 69 98 90 0 23 19 7 25 -20 13 -58 -11 -108 -73 -152
-21 -14 -22 -18 -10 -37 19 -32 47 -25 91 21 50 53 67 93 67 163 0 69 -17 110
-67 165 -62 70 -118 85 -185 50z m75 -72 c50 -26 58 -61 26 -102 -39 -50 -119
-17 -119 50 0 27 32 64 56 64 8 0 25 -5 37 -12z"/>
<path d="M2352 2618 c-19 -19 -15 -24 33 -52 59 -35 78 -70 56 -105 -8 -12
-16 -8 -47 18 -70 62 -131 73 -169 31 -43 -48 0 -148 77 -178 22 -9 38 -22 38
-31 0 -20 37 -54 51 -46 5 4 39 43 75 88 65 80 66 83 61 130 -3 39 -11 56 -43
88 -60 62 -107 82 -132 57z m14 -179 c19 -11 34 -23 34 -27 0 -15 -35 -42 -55
-42 -31 0 -69 43 -60 69 8 27 38 27 81 0z"/>
<path d="M7474 2418 c-40 -46 -72 -142 -54 -163 20 -24 30 -18 51 30 l20 46
82 -131 c45 -71 86 -130 92 -130 5 1 23 11 39 24 l29 24 -105 163 c-58 90
-110 165 -115 166 -6 2 -23 -11 -39 -29z"/>
<path d="M2615 2406 c-6 -8 -43 -57 -82 -110 -40 -52 -73 -98 -73 -103 0 -9
54 -53 64 -53 3 0 29 32 57 70 46 64 54 70 87 70 19 0 44 -7 54 -17 17 -15 19
-15 38 2 11 10 20 23 20 30 0 23 -41 49 -75 48 -31 -1 -33 1 -25 17 8 15 4 23
-16 39 -32 25 -36 25 -49 7z"/>
<path d="M7145 2146 c-29 -23 -29 -23 -11 -51 17 -25 17 -29 2 -37 -35 -20 -9
-72 31 -62 18 5 26 -3 49 -48 46 -92 61 -108 100 -108 70 0 125 48 98 84 -12
17 -17 18 -38 6 -36 -19 -52 -8 -87 62 l-31 62 21 17 c12 10 27 19 33 21 9 3
8 12 -5 32 -18 27 -18 27 -48 9 -30 -18 -31 -18 -51 10 -24 33 -25 33 -63 3z"/>
<path d="M2885 2146 c-84 -38 -121 -148 -76 -222 29 -48 106 -94 157 -94 60 0
88 13 120 55 21 28 29 51 32 95 4 55 3 59 -34 99 -62 69 -139 95 -199 67z
m132 -88 c28 -26 29 -47 3 -98 -33 -65 -92 -81 -129 -34 -24 30 -26 55 -10 87
35 68 92 87 136 45z"/>
<path d="M3282 2080 c-12 -5 -30 -23 -40 -40 -14 -25 -21 -29 -44 -24 -23 5
-28 2 -34 -21 -5 -19 -2 -30 11 -39 16 -11 13 -20 -34 -114 l-51 -102 32 -20
c18 -11 38 -19 43 -17 6 2 31 46 57 98 26 51 53 93 60 92 7 -1 22 -5 34 -8 15
-5 23 0 32 19 10 24 9 27 -18 41 -35 18 -37 26 -12 48 23 21 41 21 70 1 21
-14 23 -14 33 10 14 31 4 47 -45 70 -38 18 -60 19 -94 6z"/>
<path d="M6982 1970 c-18 -11 -41 -34 -51 -51 -17 -27 -20 -29 -28 -14 -9 16
-12 16 -41 1 -18 -9 -32 -19 -32 -23 0 -22 115 -253 126 -253 20 0 64 22 64
32 0 5 -16 47 -35 92 -40 92 -38 126 10 148 34 15 48 1 96 -94 42 -83 56 -92
96 -60 l22 17 -43 91 c-24 50 -54 100 -66 112 -30 27 -75 28 -118 2z"/>
<path d="M3471 1780 c-40 -99 -71 -186 -68 -193 3 -8 58 -36 122 -62 96 -40
118 -46 126 -34 20 32 8 46 -66 78 -41 18 -75 39 -75 47 0 11 12 42 36 92 0 1
30 -11 65 -27 67 -30 89 -28 89 10 0 13 -19 27 -65 48 -36 16 -65 32 -65 35 0
8 32 86 35 86 2 0 33 -13 70 -30 37 -16 73 -30 80 -30 11 0 31 48 23 55 -3 3
-230 105 -233 105 0 0 -34 -81 -74 -180z"/>
<path d="M6630 1802 c-51 -25 -80 -74 -80 -134 0 -93 42 -148 118 -156 55 -5
136 24 172 63 18 19 20 27 10 45 -11 20 -13 20 -33 5 -12 -8 -42 -25 -67 -37
-40 -19 -47 -19 -70 -7 -14 8 -25 21 -25 28 0 8 36 29 79 47 44 19 84 38 89
43 15 15 -1 61 -33 92 -23 24 -37 29 -77 29 -26 0 -64 -8 -83 -18z m105 -62
c18 -19 17 -20 -40 -45 -61 -28 -82 -23 -70 14 16 52 76 69 110 31z"/>
<path d="M3803 1700 c-12 -5 -26 -18 -32 -29 -22 -41 -13 -70 40 -126 43 -46
50 -57 39 -70 -18 -21 -30 -19 -83 15 l-48 30 -9 -23 c-18 -45 90 -107 161
-92 41 9 69 42 69 82 0 26 -10 43 -51 84 -27 28 -48 56 -46 62 7 22 42 18 80
-8 39 -26 53 -20 45 21 -8 43 -111 77 -165 54z"/>
<path d="M4070 1685 c-6 -15 -10 -31 -10 -36 0 -5 -11 -7 -24 -3 -19 4 -25 1
-30 -21 -8 -30 -1 -45 21 -45 8 0 13 -6 10 -12 -17 -47 -39 -169 -33 -191 3
-15 19 -33 36 -42 39 -20 96 -20 104 1 12 30 6 43 -21 46 -26 3 -28 6 -26 44
1 23 7 60 13 83 11 42 11 43 49 36 34 -6 39 -4 45 17 9 35 9 35 -29 42 -38 7
-40 12 -26 50 11 28 2 39 -42 50 -23 5 -29 3 -37 -19z"/>
<path d="M6307 1660 c-28 -28 -43 -38 -51 -30 -5 5 -27 10 -48 10 -30 0 -47
-8 -75 -34 -36 -32 -38 -33 -71 -19 -41 17 -87 5 -123 -33 -21 -23 -25 -24
-36 -9 -9 13 -20 15 -43 10 -26 -6 -31 -11 -27 -28 3 -12 15 -77 28 -145 l23
-123 36 6 c19 4 39 10 43 14 4 4 -1 48 -12 97 -20 86 -20 90 -2 114 20 28 55
37 75 21 8 -7 24 -55 36 -107 l22 -96 35 5 c20 4 38 9 41 12 3 2 -4 44 -15 92
-17 75 -18 92 -7 114 28 56 77 43 94 -24 39 -152 38 -150 73 -143 17 4 35 10
40 15 4 4 -2 47 -14 95 -25 95 -21 133 18 147 36 13 59 -18 88 -114 23 -76 29
-87 46 -82 10 3 28 8 39 11 11 3 20 10 20 16 0 15 -58 201 -67 214 -14 20 -51
34 -89 34 -29 0 -44 -8 -77 -40z"/>
<path d="M4575 1648 c-4 -12 -44 -332 -48 -387 -2 -19 4 -26 26 -32 18 -5 32
-3 40 5 9 11 17 9 38 -6 37 -28 99 -34 137 -14 112 58 101 270 -15 292 -19 4
-51 2 -71 -4 -20 -6 -37 -10 -39 -9 -1 2 1 35 6 73 10 76 1 94 -46 94 -13 0
-26 -6 -28 -12z m162 -224 c21 -21 25 -32 20 -65 -11 -85 -68 -116 -116 -65
-20 22 -22 31 -16 75 6 41 12 54 33 66 38 20 49 19 79 -11z"/>
<path d="M5505 1641 c-34 -7 -33 15 -10 -221 21 -209 21 -210 53 -210 52 0 55
9 44 106 -11 95 -6 114 36 133 27 13 58 1 66 -26 3 -10 10 -55 17 -100 l11
-83 39 0 c21 0 40 3 42 8 8 13 -24 205 -39 234 -9 18 -28 31 -53 39 -33 10
-44 8 -86 -10 -26 -12 -49 -20 -50 -19 -1 2 -6 36 -11 77 -5 41 -13 75 -19 76
-5 2 -23 0 -40 -4z"/>
<path d="M4915 1608 c-2 -13 -6 -111 -7 -218 l-3 -195 37 -3 36 -3 6 53 c3 29
8 126 11 214 5 176 6 174 -51 174 -16 0 -25 -7 -29 -22z"/>
<path d="M5074 1596 c-3 -8 -4 -25 -2 -38 3 -20 9 -23 43 -23 39 0 40 1 40 35
0 33 -2 35 -38 38 -26 2 -39 -1 -43 -12z"/>
<path d="M4246 1554 c-14 -38 -7 -44 50 -44 66 0 94 -13 94 -44 0 -21 -3 -22
-55 -18 -94 8 -145 -20 -145 -79 0 -67 51 -104 131 -97 27 3 50 1 51 -4 2 -5
19 -10 38 -11 l34 -2 18 100 c25 142 18 169 -56 200 -49 21 -152 20 -160 -1z
m112 -160 c19 -6 22 -11 17 -33 -8 -31 -21 -41 -55 -41 -46 0 -69 48 -32 69
20 12 38 13 70 5z"/>
<path d="M5293 1489 c-37 -11 -73 -52 -73 -84 0 -36 37 -72 91 -90 57 -19 72
-41 43 -62 -14 -10 -34 -12 -71 -7 -52 6 -53 6 -53 -20 0 -20 6 -27 28 -32 15
-3 34 -8 44 -10 31 -9 108 18 128 44 42 53 18 110 -57 138 -59 21 -78 37 -69
60 5 14 15 16 61 11 53 -5 55 -5 55 19 0 39 -56 54 -127 33z"/>
<path d="M5077 1484 c-4 -4 -7 -72 -7 -151 l0 -143 45 0 46 0 -3 148 -3 147
-35 3 c-20 2 -39 0 -43 -4z"/>
</g>
</svg>
