<?xml version="1.0" standalone="no"?>
<!DOCTYPE svg PUBLIC "-//W3C//DTD SVG 20010904//EN"
 "http://www.w3.org/TR/2001/REC-SVG-20010904/DTD/svg10.dtd">
<svg version="1.0" xmlns="http://www.w3.org/2000/svg"
 width="1536.000000pt" height="1024.000000pt" viewBox="0 0 1536.000000 1024.000000"
 preserveAspectRatio="xMidYMid meet">

<g transform="translate(0.000000,1024.000000) scale(0.100000,-0.100000)"
fill="#000000" stroke="none">
<path d="M7325 9240 c-446 -15 -879 -57 -1372 -134 -436 -68 -1002 -212 -1349
-342 -51 -19 -95 -34 -98 -34 -16 0 -415 -164 -537 -220 -292 -134 -640 -328
-927 -516 -446 -292 -788 -595 -1062 -939 -499 -626 -742 -1255 -743 -1925 0
-406 87 -770 276 -1149 178 -356 421 -687 746 -1012 259 -259 554 -497 853
-687 517 -330 1114 -605 1768 -815 417 -134 933 -263 1305 -326 390 -66 815
-117 1170 -142 336 -23 945 -4 1350 42 793 89 1797 345 2453 625 351 150 711
329 977 487 548 325 1029 736 1358 1159 255 328 470 747 557 1082 82 317 116
736 81 1006 -46 355 -144 687 -291 980 -94 188 -116 226 -251 431 -339 514
-842 980 -1454 1346 -95 57 -128 75 -305 171 -312 168 -865 392 -1295 524
-897 275 -2131 424 -3210 388z m1133 -64 c1216 -104 2008 -288 2912 -676 877
-377 1581 -901 2055 -1530 533 -706 757 -1488 645 -2250 -49 -330 -118 -543
-279 -855 -217 -422 -526 -798 -967 -1175 -286 -245 -718 -522 -1160 -743
-559 -281 -1077 -470 -1719 -631 -767 -191 -1326 -270 -2020 -283 -550 -10
-984 26 -1665 138 -684 113 -1485 343 -2065 593 -44 18 -117 50 -162 69 -336
146 -815 417 -1113 631 -78 56 -117 86 -285 220 -150 120 -362 320 -484 457
-108 121 -116 131 -216 259 -331 426 -535 848 -608 1260 -38 212 -42 261 -42
485 1 242 8 315 62 570 110 529 460 1132 936 1614 313 316 664 576 1182 873
468 269 975 483 1530 645 120 35 152 44 320 87 451 117 1096 210 1760 255 210
15 1169 6 1383 -13z"/>
<path d="M7667 8588 c-21 -6 -57 -28 -79 -49 -38 -36 -40 -41 -36 -84 3 -25
12 -52 19 -61 22 -26 80 -59 136 -78 95 -31 128 -77 81 -110 -30 -21 -111 -20
-171 1 -48 17 -49 17 -63 -2 -42 -57 26 -99 161 -100 75 0 98 4 138 24 62 30
81 66 78 145 -1 39 -57 89 -128 116 -92 34 -121 50 -126 70 -14 54 76 73 181
37 27 -9 35 -9 42 3 19 30 11 59 -21 76 -39 20 -161 27 -212 12z"/>
<path d="M5993 8459 c-29 -8 -31 -12 -23 -37 4 -15 25 -83 45 -152 21 -69 50
-169 65 -222 15 -53 31 -101 34 -106 6 -10 95 3 108 16 4 4 -6 54 -22 111 -17
57 -30 109 -30 116 0 23 69 75 100 75 37 0 57 -21 70 -73 6 -23 21 -76 34
-117 l22 -75 39 3 c71 6 75 12 59 84 -25 111 -53 194 -74 221 -43 54 -144 59
-217 10 -21 -14 -39 -29 -41 -34 -10 -24 -23 0 -52 91 -34 110 -36 112 -117
89z"/>
<path d="M7153 8436 c-29 -24 -30 -24 -46 -6 -12 15 -24 18 -54 13 -21 -3 -41
-8 -45 -12 -8 -8 30 -333 41 -344 4 -4 30 -4 57 0 55 10 52 -4 40 145 -7 84
-6 88 17 112 13 13 42 27 66 31 32 5 41 11 37 22 -3 8 -6 26 -6 39 0 21 -4 24
-39 24 -27 0 -49 -8 -68 -24z"/>
<path d="M8130 8439 c-89 -27 -146 -111 -138 -201 6 -56 38 -97 102 -130 45
-23 158 -33 226 -21 43 8 45 10 45 43 0 25 -4 34 -14 32 -54 -12 -143 -13
-175 -2 -34 11 -73 60 -62 78 2 4 64 3 137 -1 123 -8 134 -8 147 10 18 24 10
93 -14 127 -41 56 -171 90 -254 65z m123 -70 c27 -14 37 -28 37 -51 0 -15 -10
-18 -62 -18 -67 0 -108 8 -108 20 0 4 9 19 21 34 23 29 73 35 112 15z"/>
<path d="M6671 8405 c-103 -29 -145 -80 -145 -176 1 -70 24 -112 83 -154 40
-28 49 -30 129 -30 67 0 101 5 150 24 65 25 75 40 48 76 -14 19 -15 19 -53 1
-21 -10 -67 -21 -103 -23 -56 -4 -69 -2 -92 17 -16 12 -28 28 -28 35 0 15 14
19 158 40 57 8 108 17 113 20 17 11 9 72 -14 105 -46 69 -141 94 -246 65z
m123 -76 c32 -25 34 -47 4 -53 -42 -10 -153 -24 -156 -21 -2 2 -1 17 2 33 13
54 101 79 150 41z"/>
<path d="M8565 8386 c-44 -19 -91 -70 -105 -112 -17 -49 -8 -125 18 -162 42
-59 169 -96 252 -75 31 8 35 13 35 44 l0 34 -66 -3 c-58 -3 -69 -1 -94 20 -24
21 -28 32 -28 70 1 48 16 85 42 105 24 19 92 15 133 -7 l38 -20 15 30 c14 27
14 32 1 46 -42 42 -176 59 -241 30z"/>
<path d="M9400 8365 c-51 -23 -75 -61 -75 -119 0 -48 0 -49 90 -131 85 -79 89
-84 78 -108 -24 -51 -109 -43 -189 18 -42 32 -46 31 -69 -7 l-18 -32 36 -32
c74 -63 216 -85 296 -45 48 25 71 64 71 121 0 35 -6 46 -48 88 -26 26 -67 63
-91 84 -48 41 -51 66 -9 86 22 10 34 10 75 -4 26 -9 59 -25 72 -35 32 -25 38
-24 56 11 14 28 14 31 -6 51 -56 56 -200 84 -269 54z"/>
<path d="M5860 8251 c-36 -10 -90 -23 -121 -30 -65 -14 -133 -54 -148 -88 -20
-44 -13 -92 17 -122 15 -15 33 -30 41 -32 12 -4 12 -11 0 -43 -13 -37 -13 -38
18 -66 29 -26 31 -31 20 -59 -14 -39 2 -77 40 -92 38 -15 118 -4 205 27 89 33
115 49 134 85 21 42 17 75 -15 111 -26 30 -35 33 -80 31 -28 0 -89 -11 -137
-24 -71 -19 -87 -20 -94 -9 -12 20 -5 27 37 35 60 11 124 46 144 79 20 33 26
101 9 111 -16 10 -12 35 5 35 21 0 29 24 15 49 -13 25 -7 24 -90 2z m-34 -116
c46 -70 -78 -132 -128 -65 -23 31 -16 55 21 75 43 23 88 19 107 -10z m138
-262 c9 -21 -11 -43 -59 -64 -69 -32 -125 -21 -125 23 0 20 25 33 100 53 50
14 76 10 84 -12z"/>
<path d="M5302 8234 c-24 -17 -29 -53 -10 -72 24 -24 109 -10 130 22 34 50
-63 90 -120 50z"/>
<path d="M10082 7970 c-62 -127 -112 -234 -112 -239 0 -10 73 -41 93 -41 6 1
30 40 52 88 52 113 71 132 130 132 32 0 51 -6 66 -21 24 -24 23 -32 -42 -161
l-49 -98 23 -14 c12 -8 34 -18 48 -21 24 -6 29 -1 62 58 72 128 87 164 87 210
0 38 -5 49 -30 71 -39 33 -103 50 -157 42 l-43 -6 29 58 c16 31 36 74 45 95
l15 38 -42 19 c-23 11 -47 20 -53 20 -6 0 -61 -104 -122 -230z"/>
<path d="M5088 8153 c-21 -8 -38 -19 -38 -24 0 -5 18 -46 41 -90 22 -45 38
-87 36 -93 -3 -7 -46 -30 -97 -51 -88 -37 -93 -38 -104 -20 -6 11 -29 52 -51
91 -22 40 -43 75 -46 78 -7 7 -109 -34 -109 -43 0 -3 54 -105 120 -226 66
-121 121 -224 123 -229 3 -10 64 10 91 29 16 12 14 20 -28 104 -25 50 -46 92
-46 94 0 6 200 91 204 86 2 -2 25 -46 50 -97 42 -84 49 -92 69 -86 43 13 87
33 87 40 0 3 -29 61 -64 128 -35 66 -87 167 -116 224 -56 110 -59 112 -122 85z"/>
<path d="M9774 8111 c-72 -33 -120 -119 -111 -197 6 -61 31 -93 98 -127 44
-23 64 -27 114 -25 60 3 60 3 63 36 l3 32 -48 0 c-45 0 -87 17 -105 44 -25 35
1 118 48 155 43 34 102 23 148 -28 l19 -21 24 22 c31 29 29 40 -12 76 -60 54
-165 68 -241 33z"/>
<path d="M5378 8104 c-27 -12 -35 -20 -31 -32 8 -22 107 -237 131 -282 19 -38
30 -39 89 -15 l33 14 -14 38 c-8 21 -41 95 -74 166 -66 138 -67 138 -134 111z"/>
<path d="M8838 8099 c-24 -13 -23 -61 0 -82 41 -37 132 -9 132 41 0 44 -84 69
-132 41z"/>
<path d="M10545 7805 c-73 -40 -115 -106 -115 -182 0 -70 24 -102 115 -150
103 -55 225 -27 290 65 25 36 30 53 30 100 0 71 -23 107 -96 147 -66 36 -176
46 -224 20z m184 -91 c40 -33 40 -68 2 -121 -38 -53 -68 -73 -107 -73 -99 0
-114 118 -24 194 41 34 88 34 129 0z"/>
<path d="M4401 7681 c-95 -33 -146 -86 -146 -152 0 -34 6 -46 33 -70 36 -33
75 -37 162 -18 66 14 102 6 98 -23 -4 -29 -46 -58 -104 -73 -56 -14 -62 -23
-36 -55 19 -23 22 -23 71 -12 92 21 181 100 181 160 0 34 -25 76 -54 91 -24
13 -59 13 -205 -2 -14 -1 -28 5 -35 16 -9 15 -6 22 17 43 15 13 48 29 73 35
47 12 53 22 28 57 -18 26 -15 26 -83 3z"/>
<path d="M3963 7639 c-24 -17 -43 -31 -43 -33 0 -4 99 -125 205 -251 55 -65
114 -135 130 -156 17 -21 35 -38 41 -39 15 0 77 42 81 55 3 10 -295 377 -350
432 l-22 22 -42 -30z"/>
<path d="M10975 7599 c-80 -23 -155 -130 -141 -200 20 -101 173 -182 293 -157
35 8 58 22 94 58 62 62 78 114 54 176 -36 94 -187 156 -300 123z m144 -80 c66
-23 70 -89 8 -153 -48 -51 -84 -64 -128 -46 -83 35 -70 133 25 191 36 22 51
23 95 8z"/>
<path d="M11514 7553 c-6 -10 -82 -103 -168 -207 -86 -104 -155 -193 -154
-198 2 -5 20 -19 41 -31 l37 -21 26 25 c14 13 74 82 132 153 59 71 126 151
150 179 23 28 42 56 42 61 0 13 -64 56 -82 56 -7 0 -18 -8 -24 -17z"/>
<path d="M3946 7389 c-14 -17 -26 -42 -26 -55 0 -21 -3 -23 -18 -15 -14 8 -27
4 -55 -15 -21 -14 -37 -28 -37 -33 0 -7 95 -111 227 -249 21 -21 37 -31 45
-26 34 20 68 49 68 57 0 4 -36 49 -81 99 -74 82 -81 93 -75 122 3 17 17 41 31
53 31 27 31 34 0 67 -31 34 -47 33 -79 -5z"/>
<path d="M3590 7293 c-53 -20 -68 -81 -26 -108 28 -19 66 -8 90 27 21 30 20
44 -4 68 -20 20 -33 23 -60 13z"/>
<path d="M11804 7226 c-44 -19 -74 -62 -74 -105 0 -22 13 -62 36 -106 41 -77
42 -118 4 -130 -48 -15 -135 45 -160 111 -11 28 -21 29 -60 9 -38 -20 -38 -32
3 -91 78 -118 245 -159 333 -82 48 42 47 97 -2 194 -47 90 -43 124 13 124 32
0 45 -8 90 -56 53 -55 54 -56 78 -40 38 25 31 53 -27 111 -72 72 -158 94 -234
61z"/>
<path d="M3683 7164 c-18 -14 -33 -31 -33 -39 0 -7 15 -25 33 -40 17 -15 70
-64 117 -109 133 -128 120 -121 163 -85 20 17 37 36 37 42 0 13 -255 250 -274
255 -6 1 -26 -10 -43 -24z"/>
<path d="M3410 7091 c-52 -28 -134 -119 -154 -173 -27 -70 -19 -163 18 -217
57 -82 164 -141 256 -141 94 0 225 93 267 190 39 91 43 82 -70 172 l-102 80
-68 -72 c-37 -40 -67 -79 -65 -87 2 -8 15 -22 30 -30 25 -16 27 -16 63 15 l36
32 45 -31 c24 -18 44 -34 44 -36 0 -17 -56 -85 -85 -103 -74 -46 -193 -8 -252
79 -32 47 -31 116 2 160 24 34 119 111 136 111 16 0 10 36 -9 53 -24 22 -48
21 -92 -2z"/>
<path d="M7680 6969 c-65 -26 -78 -72 -30 -104 41 -27 38 -35 -15 -35 -41 0
-46 3 -64 38 -11 20 -29 48 -41 62 -16 21 -21 22 -29 11 -7 -11 -1 -25 20 -52
46 -59 38 -69 -61 -69 -53 0 -59 2 -62 23 -4 21 -5 21 -18 -6 -12 -24 -11 -30
1 -43 24 -23 295 -8 321 18 26 26 23 39 -17 80 l-35 36 35 16 c19 9 35 21 35
26 0 12 -7 12 -40 -1z"/>
<path d="M7867 6943 c-3 -5 -8 -30 -12 -58 -4 -27 -11 -55 -17 -62 -12 -15 -2
-33 18 -33 8 0 33 18 56 40 33 32 54 42 102 52 47 9 57 14 44 22 -15 9 -15 11
0 23 16 11 15 12 -3 12 -11 0 -38 -6 -60 -14 l-40 -13 40 -2 40 -2 -54 -15
c-30 -8 -62 -23 -72 -34 -25 -29 -28 -24 -22 36 4 36 2 55 -5 55 -6 0 -13 -3
-15 -7z"/>
<path d="M7385 6929 c-4 -6 -5 -13 -2 -16 7 -7 27 6 27 18 0 12 -17 12 -25 -2z"/>
<path d="M7410 6915 c-7 -9 -10 -18 -7 -22 8 -7 37 15 37 28 0 14 -16 11 -30
-6z"/>
<path d="M12067 6885 l-17 -24 56 -28 c83 -40 116 -92 79 -123 -13 -11 -20
-10 -43 9 -88 71 -115 83 -176 78 -49 -3 -63 -8 -83 -31 -43 -51 -23 -114 53
-165 26 -17 56 -31 66 -31 14 0 18 -5 14 -18 -8 -24 46 -78 66 -66 34 21 158
127 187 159 62 71 35 146 -78 222 -74 49 -99 53 -124 18z m11 -200 c36 -34 36
-36 18 -50 -28 -21 -69 -19 -100 6 -28 22 -33 48 -14 67 21 21 58 13 96 -23z"/>
<path d="M7180 6841 c-10 -19 -8 -21 20 -21 18 0 29 -4 25 -10 -3 -5 -17 -10
-31 -10 -29 0 -32 -20 -4 -27 11 -3 20 -9 20 -14 0 -11 -74 -49 -95 -49 -24 0
-17 -17 9 -22 37 -7 83 17 102 53 9 18 23 39 30 47 8 7 14 17 14 21 0 16 -27
40 -52 46 -20 5 -29 2 -38 -14z"/>
<path d="M8071 6803 c-18 -39 -3 -47 141 -77 144 -30 251 -63 343 -106 35 -17
70 -30 76 -30 7 0 20 -6 28 -13 9 -8 31 -19 48 -27 28 -11 36 -10 58 4 14 9
33 33 42 51 9 19 20 35 25 35 4 0 8 8 8 18 0 13 -9 8 -33 -19 -17 -19 -37 -44
-43 -54 -10 -19 -12 -19 -28 -2 -10 9 -29 17 -42 17 -23 0 -24 3 -18 35 l6 35
-66 0 c-54 0 -66 3 -66 16 0 12 -6 15 -24 10 -36 -9 -56 3 -56 32 l0 25 -22
-20 -23 -21 -162 41 c-136 34 -163 44 -163 59 0 26 -15 22 -29 -9z m574 -164
c11 -17 2 -18 -25 -4 -24 14 -24 14 -3 15 12 0 25 -5 28 -11z"/>
<path d="M6770 6795 c0 -18 24 -30 40 -20 8 5 5 11 -7 21 -24 18 -33 17 -33
-1z"/>
<path d="M7077 6784 c-16 -16 -7 -44 14 -44 15 0 20 5 17 22 -3 22 -19 33 -31
22z"/>
<path d="M6970 6765 c0 -8 -9 -19 -21 -25 -16 -9 -24 -8 -39 5 -13 11 -20 13
-25 5 -4 -7 -19 -9 -36 -5 -18 4 -29 3 -29 -4 0 -6 0 -14 -1 -18 0 -5 10 -11
23 -14 22 -6 21 -7 -10 -19 -34 -13 -38 -33 -7 -39 10 -1 41 7 69 19 28 13 66
29 84 37 34 15 38 23 22 54 -13 22 -30 25 -30 4z"/>
<path d="M6600 6702 c0 -11 16 -34 36 -52 l36 -31 -23 -25 c-12 -13 -19 -27
-15 -31 9 -10 56 17 70 40 14 23 3 40 -57 84 -42 31 -47 33 -47 15z"/>
<path d="M6986 6691 c-4 -7 -5 -15 -2 -18 9 -9 19 4 14 18 -4 11 -6 11 -12 0z"/>
<path d="M6460 6661 c0 -12 56 -34 72 -28 7 3 -3 12 -24 21 -43 18 -48 19 -48
7z"/>
<path d="M6513 6613 c-22 -8 -14 -20 17 -26 17 -4 30 -12 30 -18 0 -7 -11 -9
-30 -5 -38 7 -41 -16 -5 -40 23 -15 27 -15 49 0 14 8 28 25 32 38 12 38 -47
70 -93 51z"/>
<path d="M7480 6574 c-443 -48 -822 -237 -1059 -529 -70 -87 -86 -111 -132
-205 -120 -244 -131 -461 -38 -732 27 -76 102 -211 140 -252 16 -17 29 -35 29
-40 0 -10 158 -169 201 -201 14 -11 31 -30 38 -43 6 -12 20 -22 30 -22 10 0
52 -22 94 -50 42 -27 82 -50 89 -50 8 0 32 -9 53 -21 22 -11 106 -42 187 -69
758 -251 1642 51 1940 663 68 140 93 252 93 422 0 103 -5 148 -23 215 -99 370
-430 683 -887 838 -135 46 -238 67 -405 82 -141 12 -191 12 -350 -6z m521
-153 c140 -30 240 -65 366 -127 264 -129 460 -333 553 -575 21 -55 40 -194 21
-154 -9 19 -10 18 -11 -5 -2 -19 -5 -16 -13 17 -17 60 -25 61 -16 0 20 -140
-3 -330 -54 -439 -20 -44 -26 -75 -31 -187 -8 -158 -22 -201 -63 -201 -15 0
-46 5 -68 10 -138 34 -378 48 -520 30 -54 -6 -50 -7 50 -9 61 -1 164 -6 230
-12 66 -5 142 -11 168 -13 66 -5 72 -16 9 -16 -45 0 -59 -6 -124 -52 -315
-226 -755 -312 -1143 -223 -138 32 -306 94 -385 143 -88 56 -190 133 -185 141
14 24 415 33 544 12 40 -6 76 -10 78 -7 10 9 -100 27 -232 37 -154 12 -373 0
-480 -26 -89 -22 -129 -20 -143 8 -17 33 -29 101 -37 207 -4 61 -18 131 -38
195 -29 94 -31 109 -31 271 -1 95 -4 167 -8 160 -4 -6 -8 -20 -8 -31 0 -22
-38 -61 -48 -50 -14 13 31 184 68 263 51 107 87 159 179 255 172 180 359 286
634 358 162 43 212 48 437 44 162 -2 225 -7 301 -24z"/>
<path d="M7625 6068 c-73 -97 -105 -171 -105 -245 0 -61 23 -143 41 -143 5 0
9 19 9 43 0 47 34 125 74 172 l26 30 25 -30 c41 -48 76 -128 78 -177 3 -59 21
-47 43 29 25 86 -4 178 -104 326 l-39 58 -48 -63z"/>
<path d="M6947 5565 c-3 -8 -11 -63 -17 -122 -6 -59 -18 -167 -26 -240 -8 -73
-14 -137 -14 -143 0 -5 21 -10 49 -10 194 0 485 -116 640 -256 l51 -46 0 300
0 300 -56 45 c-134 106 -371 187 -549 187 -54 0 -74 -4 -78 -15z"/>
<path d="M8215 5570 c-16 -5 -74 -18 -127 -30 -138 -31 -351 -141 -332 -171 3
-5 -1 -6 -9 -3 -34 13 -37 -18 -35 -315 l3 -292 60 51 c65 55 178 127 235 148
169 65 232 82 318 88 50 4 96 10 103 15 16 10 -26 500 -44 511 -15 10 -133 8
-172 -2z"/>
<path d="M6745 5478 c-2 -7 -11 -85 -20 -173 -9 -88 -23 -209 -30 -270 -8 -60
-15 -116 -15 -122 0 -10 35 -13 143 -13 255 0 489 -42 675 -121 60 -26 45 -9
-35 39 -131 79 -372 156 -558 178 -33 4 -62 10 -65 15 -5 7 15 247 35 418 l7
61 -66 0 c-44 0 -68 -4 -71 -12z"/>
<path d="M8475 5484 c-7 -3 -8 -30 -3 -82 20 -201 36 -397 33 -402 -3 -4 -42
-10 -87 -13 -99 -8 -262 -46 -338 -80 -30 -13 -74 -32 -98 -42 -30 -13 -39
-21 -30 -27 9 -6 7 -8 -7 -6 -19 2 -85 -27 -85 -37 0 -3 15 2 33 9 117 50 315
84 556 96 107 5 196 11 198 14 2 2 -5 96 -17 207 -11 112 -23 233 -27 269 -8
92 -14 100 -71 99 -26 0 -52 -3 -57 -5z m148 -561 c-13 -2 -35 -2 -50 0 -16 2
-5 4 22 4 28 0 40 -2 28 -4z m-636 -79 c-3 -3 -12 -4 -19 -1 -8 3 -5 6 6 6 11
1 17 -2 13 -5z"/>
<path d="M6625 5355 c-5 -2 -22 -6 -37 -9 l-28 -6 0 -95 c0 -106 28 -427 38
-436 4 -4 59 -1 122 6 63 7 160 17 215 21 l100 8 -75 9 c-41 4 -132 6 -202 3
l-128 -5 0 47 c0 48 36 384 46 435 5 23 3 27 -18 26 -13 0 -27 -2 -33 -4z"/>
<path d="M8676 5278 c7 -46 13 -102 13 -125 1 -33 4 -41 16 -37 9 4 18 -1 22
-12 6 -15 9 -12 14 16 5 27 7 17 9 -40 l3 -75 7 55 c5 30 8 106 9 168 1 120 2
118 -51 114 -10 -1 -18 4 -19 11 -1 6 -5 1 -9 -13 -8 -24 -8 -24 -9 -2 -1 12
-5 22 -9 22 -4 0 -2 -37 4 -82z m21 -20 c-3 -8 -6 -5 -6 6 -1 11 2 17 5 13 3
-3 4 -12 1 -19z m10 -85 c-3 -10 -5 -4 -5 12 0 17 2 24 5 18 2 -7 2 -21 0 -30z"/>
<path d="M8701 5084 c0 -11 3 -14 6 -6 3 7 2 16 -1 19 -3 4 -6 -2 -5 -13z"/>
<path d="M8743 4955 c0 -22 2 -30 4 -17 2 12 2 30 0 40 -3 9 -5 -1 -4 -23z"/>
<path d="M8712 4930 c0 -19 2 -27 5 -17 2 9 2 25 0 35 -3 9 -5 1 -5 -18z"/>
<path d="M8717 4854 c-3 -3 -88 -6 -189 -6 l-183 0 115 -9 c63 -5 147 -12 185
-17 39 -5 77 -6 85 -1 11 6 12 8 1 9 -7 0 -11 6 -7 15 6 16 3 19 -7 9z"/>
<path d="M7058 4833 c12 -2 32 -2 45 0 12 2 2 4 -23 4 -25 0 -35 -2 -22 -4z"/>
<path d="M8043 4773 c9 -2 23 -2 30 0 6 3 -1 5 -18 5 -16 0 -22 -2 -12 -5z"/>
<path d="M12335 6581 c-25 -11 -51 -40 -59 -67 -5 -17 -17 -23 -56 -28 -42 -6
-51 -11 -56 -31 -5 -21 -12 -25 -44 -25 -52 0 -82 -26 -82 -72 0 -62 110 -202
179 -229 50 -19 103 -11 134 20 46 47 39 78 -40 185 -42 57 -49 71 -39 84 11
13 15 11 33 -14 74 -105 171 -141 235 -88 30 26 31 26 51 8 19 -17 20 -17 41
4 l21 21 -49 65 c-27 36 -57 77 -68 92 -45 63 -141 99 -201 75z m124 -86 c45
-23 58 -85 22 -105 -44 -23 -92 -5 -110 41 -13 36 10 69 57 78 2 1 16 -6 31
-14z m-219 -186 c45 -57 52 -94 19 -104 -29 -10 -84 31 -111 83 -23 43 -23 43
-4 58 33 24 54 16 96 -37z"/>
<path d="M6300 6521 c0 -13 37 -24 50 -16 6 4 8 11 5 16 -8 12 -55 12 -55 0z"/>
<path d="M8892 6508 c-28 -14 -39 -53 -21 -74 7 -9 40 -29 73 -46 34 -17 68
-40 76 -52 38 -55 103 -115 128 -118 17 -2 28 -10 31 -23 4 -23 49 -92 98
-149 18 -22 32 -47 31 -55 -4 -22 89 -28 117 -7 28 20 12 31 -25 16 -17 -7
-32 -11 -33 -9 -1 2 -12 18 -25 36 -26 38 -27 43 -7 43 9 0 30 7 47 16 41 21
23 43 -20 25 -34 -14 -84 -11 -89 5 -2 6 11 14 29 18 44 8 98 38 98 53 0 18
-35 16 -50 -1 -16 -21 -76 -39 -100 -31 -11 3 -23 17 -26 31 -3 13 -10 24 -15
24 -17 0 -9 18 11 23 22 6 27 36 8 55 -8 8 -20 7 -47 -4 l-35 -15 -50 50 c-42
43 -48 52 -37 65 12 14 9 16 -24 16 -49 0 -142 64 -124 86 6 8 18 14 26 14 8
0 11 5 8 10 -8 12 -23 12 -53 -2z m308 -248 c0 -5 -7 -10 -15 -10 -8 0 -15 5
-15 10 0 6 7 10 15 10 8 0 15 -4 15 -10z"/>
<path d="M3056 6474 c-9 -8 -22 -25 -31 -36 l-15 -22 -46 23 c-50 26 -48 26
-80 -32 -14 -26 -14 -30 2 -48 9 -10 25 -21 35 -24 14 -5 17 -13 13 -34 -5
-22 -1 -31 20 -44 31 -21 31 -21 51 0 19 18 20 17 164 -62 100 -55 150 -43
207 46 31 49 30 67 -2 79 -36 14 -37 13 -56 -20 -11 -20 -25 -30 -40 -30 -23
0 -171 81 -183 100 -3 6 3 23 14 39 28 38 26 48 -8 66 -27 13 -31 13 -45 -1z"/>
<path d="M6398 6463 c-2 -20 -11 -30 -33 -38 -16 -5 -34 -16 -38 -23 -6 -8
-19 -11 -36 -7 -20 4 -34 -1 -57 -20 -16 -14 -35 -25 -41 -25 -19 0 -16 -11 9
-37 l22 -24 -37 -35 c-41 -39 -46 -54 -18 -54 26 0 64 32 85 72 10 19 29 41
41 49 56 36 144 105 150 118 5 14 -21 51 -36 51 -4 0 -9 -12 -11 -27z"/>
<path d="M6130 6404 c0 -18 28 -30 40 -18 5 5 -1 14 -16 21 -19 9 -24 8 -24
-3z"/>
<path d="M8990 6290 c0 -5 12 -10 26 -10 14 0 23 4 19 10 -3 6 -15 10 -26 10
-10 0 -19 -4 -19 -10z"/>
<path d="M9010 6262 c0 -10 21 -32 32 -32 16 0 8 19 -12 30 -11 6 -20 7 -20 2z"/>
<path d="M2871 6205 l-24 -45 69 -62 c131 -120 150 -140 129 -134 -29 7 -241
36 -268 36 -17 0 -28 -10 -40 -35 -9 -20 -17 -41 -17 -48 0 -9 55 -19 183 -35
244 -30 227 -32 260 29 l29 50 -48 52 c-27 29 -69 74 -94 102 -73 80 -131 135
-144 135 -6 0 -22 -20 -35 -45z"/>
<path d="M12649 6231 l-23 -19 46 -51 c57 -63 67 -96 38 -125 l-21 -21 -20 25
c-102 128 -138 152 -204 130 -50 -16 -69 -49 -62 -106 5 -48 46 -110 85 -130
17 -8 19 -13 10 -22 -10 -10 -8 -20 6 -47 11 -19 24 -35 30 -35 6 0 61 24 122
54 165 80 194 128 140 235 -25 49 -96 131 -114 131 -5 0 -20 -8 -33 -19z m-72
-173 c35 -39 47 -69 32 -79 -57 -36 -152 44 -107 89 19 19 53 14 75 -10z"/>
<path d="M6090 6180 c0 -5 -8 -10 -18 -10 -21 0 -42 -19 -42 -38 0 -9 7 -11
19 -7 12 4 21 0 25 -11 9 -24 -12 -44 -45 -44 -31 0 -36 -9 -17 -28 6 -6 9
-15 5 -19 -11 -10 -67 48 -67 69 0 21 -27 35 -40 22 -15 -15 11 -83 43 -110
52 -44 117 -21 117 43 0 13 13 35 30 49 36 32 46 60 30 79 -14 17 -40 20 -40
5z"/>
<path d="M12755 5849 c-192 -69 -195 -70 -195 -85 0 -24 34 -85 44 -81 6 3 62
21 125 41 106 34 115 36 137 21 32 -21 56 -59 49 -77 -9 -22 -38 -35 -154 -68
-58 -16 -108 -33 -112 -37 -4 -5 2 -28 12 -52 15 -34 23 -42 37 -36 9 3 63 18
120 33 94 25 104 26 129 12 15 -9 34 -28 43 -43 14 -25 13 -28 -5 -46 -21 -19
-106 -49 -209 -72 -52 -11 -57 -14 -52 -35 13 -50 26 -74 41 -74 21 0 235 60
260 72 101 52 93 161 -17 232 l-27 18 21 29 c20 26 20 32 9 71 -8 24 -30 59
-53 82 -22 22 -35 42 -29 44 6 2 11 13 11 23 0 23 -27 79 -38 78 -4 0 -70 -23
-147 -50z"/>
<path d="M5870 5875 c-7 -9 -14 -33 -15 -53 -1 -30 -5 -38 -23 -40 -13 -2 -29
2 -37 8 -18 15 -35 5 -35 -20 0 -14 9 -20 38 -22 33 -3 37 -6 40 -32 3 -26 1
-28 -22 -22 -31 8 -35 -8 -6 -26 23 -15 24 -28 8 -97 -12 -55 -25 -62 -53 -31
-21 23 -35 26 -35 7 0 -20 68 -87 88 -87 28 0 53 33 53 71 2 98 6 136 18 157
7 13 14 56 16 95 4 60 7 72 21 72 27 0 28 22 2 29 -35 9 -44 7 -58 -9z"/>
<path d="M9421 5844 c-26 -19 -27 -35 -1 -57 11 -9 17 -23 14 -32 -4 -8 1 -27
10 -41 10 -14 18 -47 18 -75 1 -27 5 -49 10 -49 5 0 9 -26 9 -57 -1 -71 4
-116 12 -130 4 -6 4 -18 1 -26 -7 -19 24 -37 65 -37 16 0 33 -4 36 -10 3 -5
14 -10 23 -10 28 1 -35 50 -64 50 -32 0 -41 25 -19 50 17 19 17 21 0 40 -15
16 -15 22 -5 35 10 12 10 18 1 29 -9 11 -9 19 1 37 10 17 10 23 1 26 -7 3 -13
9 -13 15 0 6 16 8 44 4 29 -5 47 -3 51 5 10 16 -15 30 -43 24 -32 -8 -62 11
-62 40 0 13 -4 26 -9 29 -5 3 -9 21 -8 40 1 34 2 34 41 33 35 -2 41 1 41 18 0
16 -8 21 -35 23 -19 2 -42 9 -50 16 -26 22 -47 25 -69 10z m39 -24 c0 -5 -5
-10 -11 -10 -5 0 -7 5 -4 10 3 6 8 10 11 10 2 0 4 -4 4 -10z"/>
<path d="M2715 5816 c-93 -41 -156 -176 -121 -259 44 -107 204 -169 304 -118
75 39 116 107 116 197 1 52 -3 66 -28 98 -57 75 -193 116 -271 82z m130 -110
c82 -35 109 -103 60 -151 -42 -42 -151 -29 -204 24 -29 29 -28 87 1 118 26 27
89 31 143 9z"/>
<path d="M5700 5711 c0 -21 32 -37 51 -26 7 5 4 13 -7 26 -22 25 -44 24 -44 0z"/>
<path d="M2382 5411 c-74 -74 -106 -235 -64 -318 49 -95 158 -150 281 -141
108 8 172 51 226 150 25 45 30 67 33 144 l4 91 -28 11 c-16 6 -73 23 -128 38
-82 22 -100 25 -107 13 -19 -29 -61 -181 -53 -189 5 -4 23 -11 40 -14 29 -7
32 -5 48 39 20 51 39 57 102 30 33 -14 35 -17 29 -47 -18 -87 -90 -158 -160
-158 -77 0 -165 45 -190 97 -24 49 -18 84 26 173 40 79 41 84 24 97 -29 20
-51 16 -83 -16z"/>
<path d="M5836 5354 c-5 -13 -16 -15 -51 -11 -52 5 -63 -3 -35 -28 40 -36 110
-16 110 31 0 27 -15 32 -24 8z"/>
<path d="M9587 5283 c-17 -4 -17 -6 -2 -29 21 -33 1 -41 -50 -20 -21 9 -41 16
-45 16 -13 0 -20 -29 -26 -99 -3 -45 -10 -72 -23 -86 -11 -11 -29 -49 -41 -84
-12 -36 -32 -78 -46 -94 -27 -32 -32 -78 -10 -96 17 -14 91 -11 91 4 0 5 -13
12 -29 15 -41 7 -42 22 -7 63 17 19 31 40 31 46 0 18 40 3 61 -23 13 -16 20
-18 29 -10 18 18 3 56 -19 49 -21 -6 -69 39 -52 50 6 3 11 16 11 28 0 13 9 26
23 32 13 6 21 18 20 29 -1 11 5 25 13 33 10 10 11 20 4 33 -7 13 -6 20 6 24
14 5 14 9 3 23 -13 14 -11 16 11 11 14 -3 32 -9 41 -12 12 -5 23 2 39 24 19
26 21 36 11 56 -11 24 -13 25 -44 17z"/>
<path d="M5812 5160 c-1 -25 2 -40 9 -40 8 0 10 -12 6 -35 -4 -27 -2 -35 9
-35 8 0 13 -4 9 -9 -3 -6 -23 -9 -45 -8 -22 1 -45 -4 -52 -11 -22 -22 11 -33
81 -26 l64 7 -5 -27 c-4 -18 0 -29 11 -36 13 -7 14 -11 4 -21 -18 -18 -16 -29
6 -29 10 0 31 -16 46 -36 22 -29 25 -38 14 -45 -20 -12 -30 -11 -50 7 -21 19
-39 11 -39 -17 0 -15 7 -19 38 -20 62 -2 76 1 94 22 16 18 16 24 3 48 -7 15
-21 33 -29 40 -9 8 -16 25 -16 40 0 15 -13 42 -30 61 -16 19 -29 45 -30 57 0
12 -4 25 -10 28 -5 3 -10 13 -10 22 0 9 -7 25 -16 35 -16 16 -16 18 0 24 23 9
20 21 -8 28 -13 3 -30 8 -38 11 -9 4 -14 -6 -16 -35z"/>
<path d="M5791 4916 c-10 -12 -8 -17 8 -25 26 -14 31 -14 31 3 0 24 -26 38
-39 22z"/>
<path d="M9828 4599 c-41 -30 -257 -126 -361 -159 -135 -45 -315 -89 -452
-112 -66 -10 -121 -20 -122 -22 -1 -1 2 -42 8 -91 5 -50 13 -116 16 -147 3
-32 10 -58 15 -58 5 0 71 16 147 35 139 35 307 91 414 139 99 44 62 17 -45
-34 -231 -108 -551 -194 -918 -244 -473 -66 -1082 -74 -1550 -21 -321 37 -657
106 -877 181 -93 32 -288 122 -281 129 3 3 45 -12 94 -33 147 -65 390 -137
483 -144 l35 -3 17 120 c27 184 30 171 -43 179 -250 29 -643 149 -824 252 -43
24 -79 44 -81 44 -9 0 0 -130 16 -240 15 -95 17 -126 8 -132 -17 -11 -211 -65
-330 -92 -15 -4 -25 -11 -22 -16 6 -10 142 -91 255 -152 36 -19 103 -50 150
-67 115 -44 131 -53 126 -66 -2 -6 -10 -52 -17 -102 -19 -135 -9 -145 217
-223 597 -206 1598 -286 2494 -200 418 40 733 99 1010 189 130 43 236 94 254
123 7 11 6 44 -3 105 -6 48 -13 96 -14 106 -2 14 24 29 123 71 145 61 131 54
281 145 148 90 154 97 92 105 -56 8 -305 75 -314 84 -4 4 2 77 12 162 11 85
18 167 17 182 l-3 27 -27 -20z m-3197 -806 c1 -16 2 -60 3 -98 1 -39 5 -76 10
-83 5 -8 39 -12 111 -12 95 0 104 2 110 20 8 24 65 70 87 70 24 0 42 -29 41
-65 -1 -41 3 -42 157 -35 79 4 109 8 96 14 -10 5 -38 10 -62 10 -49 1 -54 9
-22 43 28 30 47 29 111 -6 28 -16 64 -32 80 -35 29 -7 34 -23 15 -48 -32 -38
-357 -66 -442 -38 -25 8 -50 8 -90 1 -71 -13 -195 -3 -219 17 -15 13 -22 14
-35 4 -100 -70 -212 -67 -212 8 0 16 11 41 24 57 l24 28 -1 -35 -2 -35 47 2
c26 0 65 9 85 20 l38 18 1 80 c0 44 4 90 8 103 10 32 36 28 37 -5z m2409 17
c0 -5 -4 -10 -10 -10 -5 0 -10 5 -10 10 0 6 5 10 10 10 6 0 10 -4 10 -10z
m-450 -124 c0 -33 4 -66 8 -72 6 -11 103 -7 255 9 15 2 51 4 79 5 51 2 52 3
30 18 -19 13 -20 19 -11 37 19 37 51 67 72 67 27 0 87 -38 87 -56 0 -11 -13
-13 -62 -8 -53 4 -60 3 -43 -7 12 -8 50 -12 98 -11 42 0 77 -1 77 -3 0 -2 -4
-15 -9 -28 -8 -19 -19 -27 -53 -32 -24 -3 -67 -13 -95 -21 -29 -8 -97 -19
-150 -24 -54 -5 -136 -14 -182 -20 -56 -6 -90 -6 -102 1 -15 8 -36 1 -99 -31
-90 -45 -137 -50 -195 -23 -19 9 -35 20 -35 24 0 4 29 8 64 11 58 3 66 7 98
41 27 28 43 37 69 37 60 0 64 8 51 96 -11 69 -10 79 5 96 16 18 17 17 30 -13
7 -17 13 -59 13 -93z m-2162 93 c-2 -6 -8 -10 -13 -10 -5 0 -11 4 -13 10 -2 6
4 11 13 11 9 0 15 -5 13 -11z m52 -29 c0 -5 -4 -10 -10 -10 -5 0 -10 5 -10 10
0 6 5 10 10 10 6 0 10 -4 10 -10z m470 -5 c0 -8 -4 -15 -10 -15 -5 0 -10 7
-10 15 0 8 5 15 10 15 6 0 10 -7 10 -15z m-50 -5 c0 -5 -4 -10 -10 -10 -5 0
-10 5 -10 10 0 6 5 10 10 10 6 0 10 -4 10 -10z m798 -23 c2 -12 -3 -17 -17
-17 -12 0 -21 6 -21 13 0 31 32 34 38 4z m312 3 c0 -5 -4 -10 -10 -10 -5 0
-10 5 -10 10 0 6 5 10 10 10 6 0 10 -4 10 -10z m-370 -10 c0 -5 -4 -10 -10
-10 -5 0 -10 5 -10 10 0 6 5 10 10 10 6 0 10 -4 10 -10z m76 -65 c39 -52 42
-109 9 -160 -15 -23 -41 -51 -59 -63 -32 -22 -36 -22 -92 -8 -33 8 -48 14 -34
15 41 2 160 65 160 85 0 3 -19 6 -43 6 -67 0 -83 29 -51 93 39 77 69 85 110
32z m378 -16 c48 -57 25 -146 -53 -204 -36 -26 -93 -33 -136 -16 -17 7 -14 9
15 14 42 8 106 41 138 71 l24 21 -64 5 c-60 5 -63 6 -66 32 -3 28 45 112 70
121 18 6 42 -8 72 -44z m-1616 -177 c2 -7 -3 -12 -12 -12 -9 0 -16 7 -16 16 0
17 22 14 28 -4z m1930 -30 c2 -7 -3 -12 -12 -12 -9 0 -16 7 -16 16 0 17 22 14
28 -4z"/>
<path d="M6915 3630 c-9 -15 4 -30 26 -30 23 0 26 25 3 34 -21 8 -22 8 -29 -4z"/>
<path d="M7640 3595 c0 -10 10 -15 31 -15 27 0 30 2 19 15 -7 8 -21 15 -31 15
-11 0 -19 -7 -19 -15z"/>
<path d="M8000 3590 c0 -5 18 -10 41 -10 24 0 38 4 34 10 -3 6 -22 10 -41 10
-19 0 -34 -4 -34 -10z"/>
<path d="M5730 4540 c-11 -7 -9 -11 13 -19 46 -18 59 -15 45 9 -14 22 -34 25
-58 10z"/>
<path d="M9558 4513 c6 -2 18 -2 25 0 6 3 1 5 -13 5 -14 0 -19 -2 -12 -5z"/>
<path d="M6800 4452 c0 -10 50 -47 63 -47 6 0 12 6 15 13 2 7 -5 12 -16 12
-12 0 -27 7 -36 15 -16 16 -26 19 -26 7z"/>
<path d="M6890 4416 c0 -2 7 -7 16 -10 8 -3 12 -2 9 4 -6 10 -25 14 -25 6z"/>
<path d="M7693 4150 c-71 -43 -87 -150 -23 -150 55 0 82 70 35 92 -32 14 -31
22 2 47 35 28 25 35 -14 11z m5 -102 c-5 -15 -23 -11 -26 6 -2 11 2 14 13 10
9 -4 14 -11 13 -16z"/>
<path d="M7496 4144 c-3 -9 -6 -33 -6 -55 l0 -39 -100 0 c-88 0 -102 2 -121
21 -17 17 -29 20 -58 15 -34 -5 -37 -4 -37 17 1 13 -5 22 -14 22 -11 0 -14
-10 -12 -37 l3 -38 -49 0 c-65 0 -112 -17 -112 -40 0 -16 4 -17 33 -9 17 5
130 9 251 8 251 -3 246 -5 246 87 0 53 -13 78 -24 48z m-263 -91 c-7 -2 -19
-2 -25 0 -7 3 -2 5 12 5 14 0 19 -2 13 -5z"/>
<path d="M8175 4120 c-10 -16 9 -33 30 -28 16 3 15 5 -3 21 -14 13 -22 15 -27
7z"/>
<path d="M7900 4110 c0 -5 5 -10 10 -10 6 0 10 5 10 10 0 6 -4 10 -10 10 -5 0
-10 -4 -10 -10z"/>
<path d="M8619 4098 c-1 -7 -1 -21 0 -30 2 -17 -13 -18 -202 -18 -182 0 -206
2 -211 17 -6 14 -9 14 -27 -5 -17 -19 -31 -22 -104 -22 -87 0 -98 -6 -68 -35
12 -13 24 -15 47 -9 17 4 152 8 301 10 253 2 271 4 282 21 8 12 11 32 7 51 -6
31 -23 44 -25 20z"/>
<path d="M6890 4070 c-27 -23 -29 -24 -66 -10 -21 8 -31 7 -45 -6 -15 -14 -17
-20 -7 -32 10 -12 8 -18 -11 -33 -13 -11 -32 -19 -42 -19 -10 0 -19 -4 -19
-10 0 -29 95 0 103 31 4 15 15 19 56 19 47 0 65 -10 41 -25 -15 -9 -12 -22 7
-29 9 -4 23 0 32 9 11 11 12 15 3 15 -9 0 -11 10 -7 34 7 36 -1 76 -14 76 -4
0 -18 -9 -31 -20z"/>
<path d="M7917 4073 c-11 -10 -8 -43 3 -43 6 0 10 -6 10 -13 0 -18 -72 -57
-104 -57 -37 0 -23 -18 19 -26 44 -8 79 13 102 61 13 28 14 39 5 60 -12 25
-23 31 -35 18z"/>
<path d="M8000 3965 c0 -10 10 -15 30 -15 20 0 30 5 30 15 0 10 -10 15 -30 15
-20 0 -30 -5 -30 -15z"/>
<path d="M3703 3358 c-7 -35 -17 -102 -24 -150 -12 -85 -12 -87 -70 -151 l-59
-65 39 -31 c21 -17 41 -31 44 -31 3 0 32 28 65 61 64 67 45 59 280 122 45 12
81 26 79 31 -2 6 -20 23 -40 39 l-37 30 -110 -35 c-92 -30 -110 -33 -106 -19
3 9 12 55 22 104 l17 87 -39 35 c-21 19 -41 34 -44 35 -3 0 -11 -28 -17 -62z"/>
<path d="M11718 3372 l-37 -37 28 -168 c23 -137 32 -172 51 -192 l23 -24 90
79 90 79 39 -32 39 -31 37 38 37 37 -34 31 -34 31 24 18 24 18 -23 23 c-22 22
-24 22 -51 7 -27 -16 -30 -16 -62 9 -19 15 -36 29 -39 32 -22 25 -144 120
-153 120 -7 -1 -29 -18 -49 -38z m177 -202 c15 -16 13 -20 -35 -60 -28 -23
-52 -41 -54 -39 -2 2 -12 50 -23 106 l-20 102 58 -45 c32 -25 65 -54 74 -64z"/>
<path d="M11409 3093 c-94 -85 -120 -191 -69 -283 75 -134 252 -145 360 -22
72 81 63 164 -22 208 -75 39 -206 -14 -240 -96 l-11 -25 -8 30 c-16 50 -1 93
48 146 44 47 45 50 27 64 -28 21 -40 19 -85 -22z m216 -198 c14 -13 25 -35 25
-49 0 -34 -43 -66 -89 -66 -39 1 -62 14 -79 46 -10 18 -8 27 10 49 39 50 96
58 133 20z"/>
<path d="M8880 3088 c-327 -28 -734 -40 -1435 -41 -658 -1 -824 5 -1132 40
l-53 6 0 -64 0 -64 -442 7 c-416 6 -902 23 -958 33 -14 3 -32 1 -40 -4 -12 -8
-11 -11 5 -16 11 -4 36 -13 55 -22 19 -8 131 -50 250 -94 257 -95 280 -105
260 -112 -31 -11 -352 -77 -375 -77 -32 0 -42 -18 -13 -24 155 -34 617 -63
1363 -86 187 -5 368 -13 401 -16 l62 -5 4 31 c3 17 2 33 -1 35 -4 2 -94 8
-201 14 -214 12 -380 36 -380 55 0 10 16 10 73 0 129 -22 354 -35 784 -44 685
-15 1801 11 1998 46 23 4 26 2 14 -5 -14 -9 -178 -26 -446 -47 -72 -6 -73 -6
-73 -34 l0 -28 73 4 c39 2 281 6 537 9 256 3 553 10 660 15 353 18 564 31 605
39 l40 8 -30 12 c-43 18 -111 31 -185 35 -65 4 -290 55 -290 66 0 4 35 15 78
24 42 10 169 49 282 85 113 37 215 68 228 69 37 2 214 91 206 104 -4 6 -3 8 3
5 6 -4 26 0 44 8 19 8 30 14 26 15 -23 1 -263 -53 -267 -60 -3 -5 -52 -16
-110 -26 -90 -15 -199 -18 -754 -21 l-649 -5 8 76 c6 69 5 75 -12 73 -10 -1
-106 -9 -213 -19z"/>
<path d="M3892 3003 c-76 -37 -107 -116 -73 -186 27 -55 50 -76 135 -123 66
-36 69 -37 82 -19 22 29 17 38 -37 65 -54 26 -99 71 -99 98 1 46 16 42 119
-28 111 -77 116 -77 147 -19 36 71 -1 148 -95 196 -71 37 -126 42 -179 16z
m169 -82 c28 -28 38 -64 21 -75 -8 -5 -132 70 -132 80 0 7 43 23 63 23 10 1
32 -12 48 -28z"/>
<path d="M11069 2856 c-95 -34 -159 -101 -159 -167 0 -65 63 -119 138 -119 46
0 137 43 159 76 22 35 33 30 33 -16 0 -33 -7 -47 -38 -78 -22 -22 -53 -45 -70
-53 -35 -15 -38 -25 -17 -53 14 -19 16 -19 60 5 143 74 197 183 146 294 -44
98 -154 146 -252 111z m95 -91 c29 -26 31 -37 16 -66 -28 -51 -123 -61 -155
-16 -21 31 -19 54 10 82 33 34 92 34 129 0z"/>
<path d="M4265 2799 c-4 -11 -5 -22 -3 -23 1 -1 23 -11 47 -21 59 -26 91 -52
91 -75 0 -31 -15 -31 -76 0 -73 37 -153 41 -184 10 -26 -26 -26 -80 0 -113 24
-30 96 -67 132 -67 17 0 27 -7 31 -19 2 -11 18 -26 34 -35 l30 -15 57 81 c72
101 80 121 66 164 -14 40 -57 79 -125 110 -63 30 -92 30 -100 3z m53 -169 c39
-18 42 -22 32 -40 -13 -25 -53 -42 -77 -33 -47 16 -66 56 -41 81 17 17 36 15
86 -8z"/>
<path d="M10714 2664 c-31 -13 -134 -120 -134 -139 1 -10 49 -50 54 -43 1 1
16 20 33 40 l32 37 44 -72 c24 -40 61 -100 81 -134 l37 -62 44 21 c25 12 45
26 45 30 0 14 -170 301 -188 319 -15 14 -21 15 -48 3z"/>
<path d="M4530 2528 c-41 -61 -76 -114 -78 -119 -3 -8 69 -49 85 -49 4 0 25
27 46 59 20 32 46 66 56 75 21 19 71 24 113 12 22 -6 29 -3 44 18 16 26 16 27
-2 42 -13 10 -35 13 -65 11 -40 -3 -46 -1 -42 14 5 18 -40 49 -69 49 -7 -1
-47 -51 -88 -112z"/>
<path d="M4950 2408 c-85 -44 -114 -129 -67 -199 14 -21 46 -46 87 -67 56 -29
73 -33 123 -30 64 5 98 25 135 78 50 74 17 157 -81 204 -81 38 -142 42 -197
14z m147 -54 c32 -9 56 -50 48 -84 -9 -43 -62 -90 -101 -90 -41 0 -84 34 -84
66 0 37 26 81 58 98 30 17 46 19 79 10z"/>
<path d="M10248 2399 c-42 -22 -42 -22 -27 -51 9 -18 8 -24 -10 -37 -14 -11
-19 -23 -15 -39 6 -19 11 -22 38 -16 30 5 33 3 51 -37 11 -23 32 -59 47 -81
25 -34 32 -38 73 -38 44 0 135 35 135 53 0 4 -5 17 -10 27 -9 17 -13 18 -42 5
-22 -9 -39 -10 -50 -4 -18 9 -68 98 -68 119 0 6 16 18 35 27 36 17 41 28 26
52 -8 13 -15 12 -51 -2 l-42 -16 -16 29 c-20 35 -25 36 -74 9z"/>
<path d="M5414 2379 c-11 -6 -29 -24 -38 -41 -14 -23 -24 -29 -43 -25 -19 3
-27 -1 -36 -21 -8 -16 -8 -27 -2 -29 36 -12 35 -20 -10 -117 -25 -54 -43 -102
-40 -107 9 -14 85 -33 94 -23 5 5 25 47 46 94 20 47 40 89 45 94 5 5 22 3 40
-4 27 -11 33 -11 41 1 17 27 9 47 -21 58 -37 12 -38 25 -5 47 21 14 30 14 55
4 33 -14 60 -1 60 27 0 36 -135 66 -186 42z"/>
<path d="M5715 2254 c-8 -19 -32 -86 -54 -147 -21 -62 -44 -125 -50 -140 -16
-41 -14 -54 12 -60 12 -2 78 -21 146 -41 69 -20 128 -33 132 -29 4 5 9 19 11
32 3 23 -3 26 -90 50 -52 14 -94 28 -94 31 -1 21 25 90 34 90 7 0 45 -9 87
-21 72 -20 75 -20 88 -3 23 32 15 40 -64 64 -43 13 -81 26 -85 30 -13 10 14
80 31 80 9 0 52 -11 96 -25 44 -14 81 -25 82 -25 0 0 6 13 11 30 9 25 8 31 -6
39 -16 8 -255 81 -266 81 -3 0 -12 -16 -21 -36z"/>
<path d="M10021 2248 c-18 -7 -49 -27 -69 -45 -24 -23 -38 -30 -43 -22 -5 9
-18 9 -53 -1 -25 -7 -46 -13 -46 -15 0 -20 107 -245 116 -245 24 0 84 25 84
35 0 7 -13 45 -30 84 -24 58 -27 76 -18 95 13 31 47 48 84 44 25 -3 34 -14 73
-91 47 -94 44 -93 112 -63 l27 11 -37 89 c-22 55 -46 96 -62 108 -32 24 -93
31 -138 16z"/>
<path d="M9583 2106 c-125 -41 -175 -128 -123 -213 27 -44 68 -63 139 -63 63
0 181 36 209 64 13 13 13 16 -1 30 -13 14 -21 13 -78 -9 -34 -14 -78 -25 -97
-25 -35 0 -72 15 -72 29 0 5 44 21 97 36 114 32 143 44 143 59 0 17 -35 65
-58 82 -31 21 -110 26 -159 10z m92 -62 c9 -9 13 -20 8 -25 -8 -7 -121 -39
-141 -39 -21 0 2 43 32 61 38 23 79 24 101 3z"/>
<path d="M6055 2051 c-33 -14 -47 -37 -43 -72 2 -27 13 -40 63 -74 33 -22 60
-47 60 -55 0 -24 -61 -24 -108 -1 -39 20 -43 20 -55 4 -19 -26 -11 -36 49 -60
95 -39 208 -25 222 29 10 35 -14 69 -73 109 -30 20 -55 43 -55 50 0 18 58 17
103 -2 29 -12 34 -12 42 1 17 26 11 37 -27 56 -42 20 -147 29 -178 15z"/>
<path d="M6375 2048 c-2 -7 -5 -20 -8 -28 -2 -9 -16 -15 -33 -15 -24 0 -30 -5
-32 -27 -3 -23 1 -28 17 -28 25 0 26 -9 5 -96 -8 -37 -13 -77 -10 -90 8 -32
52 -56 118 -63 58 -7 58 -7 58 19 0 21 -7 28 -32 35 -30 9 -33 14 -32 45 1 19
7 55 13 79 l12 43 43 -6 c39 -6 44 -5 49 15 8 30 3 36 -39 43 -35 7 -35 8 -29
47 l7 39 -51 0 c-33 0 -53 -5 -56 -12z"/>
<path d="M6980 2024 c0 -5 -9 -92 -20 -194 -11 -102 -20 -191 -20 -198 0 -10
14 -13 53 -11 32 2 61 -2 77 -11 40 -23 152 -20 186 6 45 33 67 70 71 121 7
92 -48 143 -154 143 -35 0 -73 -5 -84 -10 -19 -11 -19 -8 -13 70 7 76 6 80
-13 80 -11 0 -35 3 -52 6 -17 4 -31 3 -31 -2z m214 -215 c20 -15 26 -29 26
-58 0 -70 -53 -111 -117 -90 -42 14 -55 38 -47 89 12 72 82 103 138 59z"/>
<path d="M9167 1989 c-21 -11 -40 -26 -43 -33 -4 -11 -13 -11 -46 1 -52 18
-106 10 -154 -23 -31 -22 -41 -24 -67 -15 -61 22 -129 10 -191 -31 -15 -10
-19 -10 -23 0 -5 13 -89 17 -96 5 -4 -7 24 -186 38 -240 4 -19 12 -23 43 -23
60 0 65 8 53 75 -16 85 -14 112 11 135 26 23 80 27 101 5 8 -7 18 -36 21 -62
4 -26 12 -65 17 -85 l10 -38 47 7 c26 3 49 7 51 9 2 2 -4 42 -14 89 -17 82
-17 86 0 105 11 12 31 20 51 20 41 0 55 -20 79 -113 10 -37 21 -70 24 -72 4
-2 28 1 54 7 52 11 52 11 20 102 -7 21 -13 49 -13 62 0 57 85 87 114 42 8 -13
24 -56 36 -95 11 -40 23 -73 26 -73 24 0 94 25 94 33 0 35 -55 183 -75 203
-31 31 -112 33 -168 3z"/>
<path d="M8148 1993 l-38 -4 0 -56 c0 -31 4 -95 10 -142 5 -47 12 -112 16
-144 l6 -58 46 3 47 3 -3 92 c-2 86 -1 93 20 107 40 26 72 29 97 9 17 -14 24
-36 34 -103 l12 -85 50 0 50 0 -2 35 c-10 193 -25 221 -119 228 -54 4 -89 -5
-145 -35 -4 -2 -10 32 -14 77 -5 51 -11 79 -19 78 -6 -1 -28 -3 -48 -5z"/>
<path d="M7397 1838 c-4 -83 -7 -173 -7 -200 l0 -48 50 0 c61 0 57 -13 64 223
l6 177 -53 0 -54 0 -6 -152z"/>
<path d="M7599 1954 c-26 -31 23 -66 78 -56 27 5 39 37 23 57 -17 20 -84 19
-101 -1z"/>
<path d="M6594 1925 c-14 -35 3 -45 76 -45 57 0 74 -4 90 -20 12 -12 18 -24
16 -29 -3 -5 -37 -6 -74 -3 -91 6 -138 -10 -159 -53 -15 -31 -15 -36 1 -59 28
-43 70 -59 147 -54 46 2 70 0 73 -8 4 -11 86 -25 86 -16 0 3 7 47 16 99 21
121 12 145 -60 179 -63 29 -202 35 -212 9z m164 -172 c-4 -40 -45 -61 -87 -44
-60 25 -33 71 42 71 47 0 48 -1 45 -27z"/>
<path d="M7600 1721 l0 -141 49 0 48 0 5 63 c3 34 4 96 4 137 l-1 75 -52 3
-53 3 0 -140z"/>
<path d="M7840 1846 c-46 -17 -68 -55 -55 -93 10 -27 41 -44 130 -70 20 -6 30
-15 30 -28 0 -18 -7 -20 -73 -20 -61 0 -75 -3 -84 -18 -13 -24 -8 -28 44 -38
109 -21 220 17 226 78 4 43 -24 66 -103 88 -49 13 -65 22 -65 35 0 24 39 33
90 21 35 -8 42 -7 51 11 8 15 8 23 0 31 -17 17 -150 19 -191 3z"/>
</g>
</svg>
